<svg width="834" height="623" viewBox="0 0 834 623" fill="none" xmlns="http://www.w3.org/2000/svg">
<path d="M410.167 471.252L311.571 510.851L189.518 206.942L272.863 173.471C276.908 171.846 281.432 171.894 285.442 173.605C289.451 175.316 292.617 178.549 294.243 182.593L410.167 471.252Z" fill="#F4A640"/>
<path d="M374.714 194.5L185.922 227.969L232.98 493.412L421.772 459.942L374.714 194.5Z" fill="#ADCFD8"/>
<path d="M327.029 230.126L242.722 245.073L243.057 246.965L327.364 232.019L327.029 230.126Z" fill="#55769F"/>
<path d="M343.889 222.187L224.16 243.412L224.496 245.305L344.225 224.079L343.889 222.187Z" fill="#55769F"/>
<path d="M361.028 244.598L215.769 270.349L216.104 272.242L361.363 246.49L361.028 244.598Z" fill="#55769F"/>
<path d="M362.642 253.701L217.383 279.453L217.718 281.345L362.977 255.594L362.642 253.701Z" fill="#55769F"/>
<path d="M365.869 271.907L220.61 297.659L220.946 299.552L366.205 273.8L365.869 271.907Z" fill="#55769F"/>
<path d="M367.483 281.011L222.224 306.762L222.56 308.655L367.819 282.903L367.483 281.011Z" fill="#55769F"/>
<path d="M369.097 290.114L223.838 315.866L224.174 317.758L369.433 292.007L369.097 290.114Z" fill="#55769F"/>
<path d="M376.195 330.154L230.936 355.906L231.272 357.798L376.531 332.047L376.195 330.154Z" fill="#55769F"/>
<path d="M377.869 339.594L232.61 365.345L232.945 367.238L378.204 341.486L377.869 339.594Z" fill="#55769F"/>
<path d="M379.542 349.033L234.283 374.785L234.618 376.677L379.878 350.926L379.542 349.033Z" fill="#55769F"/>
<path d="M381.216 358.473L235.957 384.225L236.293 386.118L381.552 360.366L381.216 358.473Z" fill="#55769F"/>
<path d="M382.889 367.913L237.63 393.665L237.966 395.558L383.225 369.806L382.889 367.913Z" fill="#55769F"/>
<path d="M384.562 377.352L239.303 403.104L239.639 404.997L384.898 379.245L384.562 377.352Z" fill="#55769F"/>
<path d="M386.236 386.792L240.977 412.544L241.312 414.436L386.571 388.685L386.236 386.792Z" fill="#55769F"/>
<path d="M347.507 187.874L162.084 236.671L230.693 497.376L416.116 448.579L347.507 187.874Z" fill="#DAEEF7"/>
<path d="M302.888 227.237L220.092 249.07L220.582 250.929L303.378 229.096L302.888 227.237Z" fill="#55769F"/>
<path d="M319.049 217.989L201.456 248.935L201.946 250.794L319.538 219.848L319.049 217.989Z" fill="#55769F"/>
<path d="M337.963 238.922L195.297 276.467L195.786 278.326L338.453 240.781L337.963 238.922Z" fill="#55769F"/>
<path d="M340.317 247.863L197.651 285.408L198.14 287.266L340.806 249.722L340.317 247.863Z" fill="#55769F"/>
<path d="M345.012 265.671L202.356 303.289L202.846 305.148L345.502 267.529L345.012 265.671Z" fill="#55769F"/>
<path d="M347.376 274.685L204.709 312.23L205.199 314.089L347.865 276.544L347.376 274.685Z" fill="#55769F"/>
<path d="M349.729 283.626L207.062 321.171L207.551 323.03L350.218 285.485L349.729 283.626Z" fill="#55769F"/>
<path d="M360.066 322.878L217.412 360.497L217.902 362.355L360.557 324.737L360.066 322.878Z" fill="#55769F"/>
<path d="M362.507 332.149L219.852 369.768L220.342 371.626L362.997 334.008L362.507 332.149Z" fill="#55769F"/>
<path d="M364.946 341.42L222.291 379.039L222.781 380.897L365.437 343.279L364.946 341.42Z" fill="#55769F"/>
<path d="M367.397 350.765L224.731 388.309L225.22 390.168L367.886 352.623L367.397 350.765Z" fill="#55769F"/>
<path d="M369.837 360.036L227.171 397.581L227.66 399.44L370.326 361.895L369.837 360.036Z" fill="#55769F"/>
<path d="M372.266 369.235L229.611 406.853L230.101 408.712L372.757 371.093L372.266 369.235Z" fill="#55769F"/>
<path d="M374.717 378.578L232.051 416.123L232.54 417.983L375.207 380.438L374.717 378.578Z" fill="#55769F"/>
<path d="M372.758 486.277L174.257 565.997L58.4762 277.711L225.282 174.815C227.484 173.456 229.957 172.595 232.526 172.292C235.096 171.989 237.701 172.251 240.159 173.061C242.617 173.87 244.868 175.206 246.755 176.977C248.643 178.747 250.12 180.909 251.084 183.31L372.758 486.277Z" fill="#FEB546"/>
<path d="M110.195 519.346L81.8771 518.832C72.0464 501.017 64.832 485.521 64.832 485.521C96.8149 478.15 123.807 481.175 146.295 489.82L158.687 519.923L161.34 496.743C217.073 526.818 240.035 590.485 240.035 590.485C240.035 590.485 141.539 579.993 120.655 570.283C112.593 566.534 102.433 553.042 92.9986 537.891C100.547 530.705 110.191 519.345 110.191 519.345" fill="#FF5B7E"/>
<path d="M64.8321 485.524C64.8321 485.524 191.286 538.74 240.035 590.489C240.035 590.489 141.539 579.998 120.655 570.287C112.593 566.537 102.433 553.046 92.9987 537.895C100.547 530.709 110.191 519.349 110.191 519.349L81.8737 518.836C72.043 501.02 64.8286 485.524 64.8286 485.524" fill="#E03268"/>
<path d="M68.8668 570.575C84.352 561.039 101.668 554.862 119.693 552.445C124.565 558.504 130.547 565.631 130.547 565.631L131.178 551.43C194.963 548.525 247.815 591.262 247.815 591.262C210.874 614.547 179.358 620.966 153.545 618.886C152.015 613.916 149.851 606.505 149.851 606.505L145.29 617.914C133.904 616.125 122.864 612.579 112.566 607.402C114.981 601.484 117.525 594.718 117.525 594.718L103.778 602.527C80.741 588.442 68.8633 570.58 68.8633 570.58" fill="#FF5B7E"/>
<path d="M153.548 618.881C152.019 613.912 149.854 606.499 149.854 606.499L145.294 617.909C133.907 616.12 122.868 612.574 112.569 607.397C114.985 601.479 117.529 594.712 117.529 594.712L103.781 602.521C80.7445 588.437 68.8667 570.574 68.8667 570.574C143.185 561.989 247.818 591.256 247.818 591.256C210.878 614.541 179.362 620.961 153.548 618.88" fill="#E03268"/>
<path d="M441.042 187.424L463.869 170.657C461.612 150.432 458.56 133.617 458.56 133.617C428.188 146.058 407.894 164.11 394.519 184.149L401.776 215.884L386.231 198.488C358.079 255.216 376.078 320.461 376.078 320.461C376.078 320.461 450.454 255.04 461.899 235.058C466.319 227.343 466.827 210.462 465.786 192.644C455.474 191.132 441.042 187.422 441.042 187.422" fill="#02CCC0"/>
<path d="M458.56 133.619C458.56 133.619 386.014 250.068 376.078 320.463C376.078 320.463 450.454 255.042 461.899 235.06C466.319 227.344 466.826 210.464 465.786 192.646C455.474 191.134 441.042 187.424 441.042 187.424L463.87 170.657C461.613 150.432 458.561 133.617 458.561 133.617" fill="#06BFAD"/>
<path d="M504.36 205.403C486.209 206.554 468.502 211.505 452.388 219.937C451.906 227.696 451.134 236.967 451.134 236.967L442.421 225.733C388.659 260.179 370.167 325.584 370.167 325.584C413.776 323.274 443.215 310.327 463.093 293.728C461.474 288.787 458.963 281.485 458.963 281.485L469.272 288.17C477.538 280.137 484.506 270.869 489.928 260.697C484.538 257.258 478.556 253.202 478.556 253.202L494.29 251.643C504.972 226.842 504.36 205.402 504.36 205.402" fill="#02CCC0"/>
<path d="M463.096 293.729C461.477 288.789 458.966 281.487 458.966 281.487L469.277 288.172C477.542 280.138 484.51 270.87 489.931 260.698C484.542 257.26 478.56 253.204 478.56 253.204L494.293 251.645C504.975 226.843 504.363 205.404 504.363 205.404C438.721 241.29 370.171 325.586 370.171 325.586C413.779 323.277 443.218 310.33 463.096 293.73" fill="#06BFAD"/>
<path d="M686.841 288.358H700.416C698.047 286.759 695.252 285.913 692.394 285.93H352.331C334.54 285.93 320.116 298.716 320.116 314.487V332.626C320.116 348.397 334.54 361.183 352.331 361.183L688.594 361.082L686.841 288.358Z" fill="#E03268"/>
<path d="M348.639 332.625V314.487C348.639 298.716 363.061 285.93 380.854 285.93H373.552C355.76 285.93 341.336 298.716 341.336 314.487V332.626C341.336 348.397 355.76 361.183 373.552 361.183H380.758C363.011 361.137 348.64 348.371 348.64 332.626" fill="#FEB546"/>
<path d="M428.283 332.625V314.487C428.283 298.716 442.706 285.93 460.498 285.93H453.196C435.404 285.93 420.98 298.716 420.98 314.487V332.626C420.98 348.397 435.404 361.183 453.196 361.183H460.401C442.655 361.137 428.283 348.371 428.283 332.626" fill="#FEB546"/>
<path d="M493.779 285.997C476.764 285.997 462.971 298.223 462.971 313.307V333.805C462.971 348.888 476.764 361.115 493.779 361.115H705.478V356.53H704.605L650.786 352.012L639.908 314.184C639.908 314.184 660.903 293.28 662.272 292.741C663.64 292.202 704.604 290.566 704.604 290.566L705.477 290.558V285.998L493.779 285.997Z" fill="#FF5B7E"/>
<path d="M691.748 323.421C691.748 301.303 704.642 290.585 704.642 290.585H498.115C482.483 290.585 469.82 301.815 469.82 315.669V331.448C469.82 345.301 482.489 356.533 498.115 356.533H704.642C704.642 356.533 691.748 351.273 691.748 323.423" fill="#DAEEF7"/>
<g style="mix-blend-mode:multiply">
<g style="mix-blend-mode:multiply">
<g style="mix-blend-mode:multiply">
<g style="mix-blend-mode:multiply">
<path d="M469.817 315.67V331.449C469.818 333.482 470.096 335.506 470.642 337.464C477.608 322.356 490.957 307.807 516.37 303.128C575.704 292.205 704.641 290.585 704.641 290.585H498.114C482.482 290.585 469.819 301.816 469.819 315.669" fill="#DAEEF7"/>
</g>
</g>
</g>
</g>
<path d="M681.242 438.771H696.605C693.991 436.792 690.801 435.725 687.523 435.732H302.639C282.501 435.732 266.177 451.735 266.177 471.476V494.181C266.177 513.922 282.501 529.926 302.639 529.926L683.223 529.799L681.242 438.771Z" fill="#07085B"/>
<path d="M462.732 435.816C443.475 435.816 427.864 451.121 427.864 469.999V495.657C427.864 514.536 443.475 529.841 462.732 529.841H702.335V524.102H701.345L640.433 518.447L628.119 471.097C628.119 471.097 651.882 444.932 653.432 444.257C654.982 443.581 701.344 441.535 701.344 441.535L702.334 441.524V435.816H462.732Z" fill="#55769F"/>
<path d="M686.796 482.66C686.796 454.976 701.388 441.555 701.388 441.555H467.64C449.952 441.555 435.613 455.616 435.613 472.953V492.704C435.613 510.044 449.951 524.102 467.64 524.102H701.388C701.388 524.102 686.796 517.518 686.796 482.66Z" fill="#DAEEF7"/>
<g style="mix-blend-mode:multiply">
<g style="mix-blend-mode:multiply">
<g style="mix-blend-mode:multiply">
<g style="mix-blend-mode:multiply">
<path d="M435.615 472.952V492.703C435.615 495.242 435.929 497.771 436.549 500.233C444.432 481.324 459.542 463.11 488.305 457.254C555.462 443.581 701.39 441.555 701.39 441.555H467.64C449.952 441.555 435.613 455.615 435.613 472.952" fill="#DAEEF7"/>
</g>
</g>
</g>
</g>
<path d="M253.491 363.402H238.121C240.876 361.795 244.014 360.961 247.203 360.991H632.241C652.387 360.991 668.717 373.689 668.717 389.353V407.369C668.717 423.034 652.386 435.731 632.241 435.731L251.509 435.631L253.491 363.402Z" fill="#02CCC0"/>
<path d="M472.087 361.057C491.352 361.057 506.969 373.201 506.969 388.181V408.54C506.969 423.52 491.352 435.664 472.087 435.664H232.39V431.11H233.381L294.317 426.622L306.631 389.051C306.631 389.051 282.859 368.29 281.305 367.755C279.75 367.219 233.374 365.595 233.374 365.595L232.383 365.586V361.056L472.087 361.057Z" fill="#06BFAD"/>
<path d="M247.937 398.227C247.937 376.26 233.338 365.611 233.338 365.611H467.178C484.873 365.611 499.219 376.765 499.219 390.525V406.196C499.219 419.955 484.874 431.11 467.178 431.11H233.341C233.341 431.11 247.94 425.886 247.94 398.227" fill="#DAEEF7"/>
<g style="mix-blend-mode:multiply">
<g style="mix-blend-mode:multiply">
<g style="mix-blend-mode:multiply">
<g style="mix-blend-mode:multiply">
<path d="M499.217 390.523V406.195C499.214 408.223 498.899 410.238 498.282 412.17C490.396 397.165 475.28 382.713 446.506 378.066C379.326 367.216 233.334 365.609 233.334 365.609H467.177C484.873 365.609 499.218 376.763 499.218 390.522" fill="#DAEEF7"/>
</g>
</g>
</g>
</g>
<g opacity="0.5">
<g opacity="0.5">
<g opacity="0.5">
<path opacity="0.5" d="M598.182 407.369V389.353C598.182 373.689 581.851 360.99 561.706 360.99H598.269C618.414 360.99 634.745 373.689 634.745 389.353V407.368C634.745 423.033 618.414 435.731 598.269 435.731L562.19 435.722C582.111 435.52 598.182 422.907 598.182 407.369Z" fill="#55769F"/>
</g>
</g>
</g>
<path d="M224.422 532.812H207.853C210.803 531.022 214.194 530.089 217.645 530.118H632.724C654.441 530.118 672.046 544.306 672.046 561.807V581.936C672.046 599.438 654.441 613.625 632.724 613.625L222.286 613.513L224.422 532.812Z" fill="#FEB546"/>
<path d="M460.073 530.192C480.841 530.192 497.676 543.76 497.676 560.495V583.243C497.676 599.98 480.84 613.547 460.073 613.547H201.675V608.466H202.743L268.433 603.452L281.707 561.474C281.707 561.474 256.081 538.278 254.41 537.68C252.738 537.081 202.739 535.267 202.739 535.267L201.671 535.257V530.197L460.073 530.192Z" fill="#F4A640"/>
<path d="M218.433 571.721C218.433 547.181 202.696 535.281 202.696 535.281H454.78C473.859 535.281 489.316 547.743 489.316 563.113V580.622C489.316 595.993 473.853 608.459 454.776 608.459H202.699C202.699 608.459 218.437 602.623 218.437 571.718" fill="#DAEEF7"/>
<path d="M232.762 589.895L236.29 597.764C236.43 598.077 236.44 598.431 236.318 598.751C236.197 599.071 235.953 599.329 235.641 599.469L217.214 607.729C216.926 607.858 216.603 607.891 216.294 607.821C215.986 607.752 215.708 607.584 215.503 607.343C215.298 607.102 215.177 606.801 215.158 606.485C215.138 606.169 215.222 605.856 215.396 605.592L222.526 594.483C222.526 594.483 228.164 595.515 232.762 589.894" fill="#07085B"/>
<path d="M256.172 589.895L259.7 597.764C259.77 597.919 259.808 598.086 259.813 598.255C259.817 598.424 259.789 598.593 259.729 598.751C259.668 598.91 259.577 599.055 259.461 599.178C259.345 599.301 259.205 599.4 259.051 599.469L240.624 607.729C240.335 607.858 240.013 607.891 239.704 607.821C239.395 607.752 239.118 607.584 238.913 607.343C238.708 607.102 238.587 606.801 238.567 606.485C238.548 606.169 238.632 605.856 238.806 605.592L245.936 594.483C245.936 594.483 251.573 595.515 256.172 589.894" fill="#07085B"/>
<path d="M651.42 353.913L647.893 361.782C647.823 361.937 647.785 362.103 647.78 362.273C647.775 362.442 647.804 362.611 647.864 362.769C647.924 362.927 648.015 363.072 648.131 363.195C648.248 363.319 648.387 363.418 648.542 363.487L666.968 371.746C667.257 371.876 667.579 371.908 667.888 371.838C668.196 371.769 668.473 371.601 668.678 371.36C668.883 371.12 669.005 370.819 669.024 370.503C669.044 370.188 668.96 369.874 668.787 369.61L661.656 358.5C661.656 358.5 656.019 359.533 651.42 353.912" fill="#07085B"/>
<path d="M627.537 352.977L624.009 360.846C623.939 361.001 623.901 361.167 623.897 361.337C623.892 361.506 623.92 361.675 623.981 361.833C624.041 361.991 624.132 362.136 624.248 362.259C624.365 362.382 624.504 362.481 624.659 362.551L643.085 370.81C643.374 370.94 643.696 370.972 644.005 370.902C644.313 370.833 644.59 370.665 644.795 370.424C645 370.183 645.122 369.883 645.141 369.567C645.16 369.252 645.077 368.938 644.903 368.674L637.773 357.565C637.773 357.565 632.136 358.597 627.537 352.977Z" fill="#07085B"/>
<g style="mix-blend-mode:multiply">
<g style="mix-blend-mode:multiply">
<g style="mix-blend-mode:multiply">
<g style="mix-blend-mode:multiply">
<path d="M489.316 563.113V580.622C489.314 582.885 488.974 585.135 488.309 587.298C479.807 570.531 463.512 554.386 432.492 549.194C360.07 537.073 202.692 535.276 202.692 535.276H454.781C473.859 535.281 489.316 547.743 489.316 563.113Z" fill="#DAEEF7"/>
</g>
</g>
</g>
</g>
<path d="M295.974 372.932L297.932 385.221L302.072 368.837C302.072 368.837 296.271 366.021 296.015 367.046C295.874 369.005 295.861 370.971 295.974 372.932" fill="#07085B"/>
<path d="M328.906 399.386L330.698 420.63L311.951 419.734L314.112 400.922L328.906 399.386Z" fill="#FFC0BB"/>
<path d="M313.083 409.867L314.111 400.92L328.905 399.384L329.525 406.741C326.584 409.671 321.294 412.71 313.083 409.866" fill="#F99893"/>
<path d="M301.589 385.07C302.716 387.401 302.118 390.023 300.253 390.922C298.388 391.82 295.962 390.664 294.838 388.333C293.714 386.002 294.309 383.381 296.175 382.482C298.04 381.583 300.465 382.739 301.589 385.07Z" fill="#F99893"/>
<path d="M298.869 386.779C298.77 386.167 298.637 385.57 298.493 384.972C297.841 382.272 297.758 379.467 298.248 376.734C298.738 374.001 299.791 371.399 301.341 369.095C302.89 366.79 304.901 364.833 307.247 363.347C309.593 361.861 312.222 360.879 314.968 360.464C317.713 360.048 320.515 360.208 323.196 360.933C325.876 361.658 328.377 362.933 330.539 364.676C332.7 366.419 334.476 368.592 335.753 371.058C337.03 373.524 337.781 376.228 337.957 378.999C338.514 378.61 339.154 378.357 339.827 378.261C340.5 378.166 341.186 378.23 341.829 378.449C344.268 379.358 345.322 382.568 344.187 385.617C343.052 388.667 340.15 390.402 337.711 389.493C337.379 389.367 337.066 389.196 336.78 388.984C336.403 398.834 328.863 406.898 319.234 407.35C314.677 407.554 310.213 406.019 306.746 403.054C302.123 399.656 299.784 392.443 298.87 386.779" fill="#FFC0BB"/>
<path d="M313.471 380.355C313.433 381.502 313.424 382.625 313.365 383.719C313.365 384.744 313.154 385.757 312.745 386.696C312.285 387.171 312.004 387.792 311.951 388.451C311.948 388.806 312.025 389.156 312.176 389.477C312.327 389.798 312.549 390.081 312.824 390.305C313.305 390.681 313.868 390.938 314.467 391.055C315.066 391.172 315.684 391.145 316.271 390.977C315.212 390.867 314.22 390.406 313.453 389.667C313.308 389.514 313.196 389.333 313.125 389.135C313.054 388.937 313.025 388.726 313.039 388.516C313.086 388.096 313.214 388.01 313.724 387.305C314.035 386.74 314.22 386.115 314.266 385.471C314.319 384.883 314.316 384.292 314.258 383.705C314.159 382.556 313.894 381.428 313.472 380.355" fill="#F99893"/>
<path d="M320.116 381.872C320.133 382.216 320.251 382.549 320.456 382.826C320.662 383.104 320.945 383.314 321.27 383.431C321.595 383.548 321.947 383.566 322.282 383.483C322.617 383.399 322.92 383.219 323.152 382.963C323.385 382.708 323.536 382.389 323.588 382.048C323.639 381.707 323.588 381.358 323.441 381.045C323.295 380.733 323.059 380.471 322.763 380.292C322.467 380.114 322.125 380.027 321.781 380.043C321.551 380.053 321.326 380.109 321.118 380.207C320.91 380.304 320.724 380.442 320.569 380.612C320.414 380.782 320.295 380.98 320.217 381.197C320.139 381.413 320.105 381.642 320.116 381.872Z" fill="#333333"/>
<path d="M305.163 383.558C305.179 383.903 305.298 384.235 305.503 384.513C305.708 384.79 305.991 385.001 306.316 385.118C306.641 385.234 306.993 385.252 307.328 385.169C307.663 385.086 307.966 384.905 308.199 384.65C308.431 384.394 308.583 384.076 308.634 383.734C308.686 383.393 308.635 383.044 308.488 382.731C308.341 382.419 308.105 382.157 307.809 381.979C307.514 381.8 307.172 381.713 306.827 381.729C306.598 381.74 306.372 381.795 306.165 381.893C305.957 381.991 305.77 382.128 305.615 382.298C305.461 382.468 305.341 382.667 305.264 382.883C305.186 383.099 305.152 383.328 305.163 383.558Z" fill="#333333"/>
<path d="M323.05 393.711C322.595 394.111 322.112 394.477 321.605 394.809C321.108 395.146 320.588 395.447 320.048 395.71C318.982 396.241 317.835 396.594 316.654 396.753C315.474 396.892 314.278 396.803 313.131 396.491C311.975 396.149 310.872 395.647 309.854 395.002C310.787 395.806 311.864 396.426 313.028 396.829C314.212 397.228 315.47 397.357 316.71 397.206C317.943 397.041 319.133 396.638 320.211 396.019C321.286 395.422 322.246 394.64 323.05 393.709" fill="#F99893"/>
<path d="M317.92 377.923C318.756 377.657 319.611 377.453 320.477 377.312C321.28 377.183 322.097 377.165 322.905 377.259C323.71 377.349 324.498 377.557 325.241 377.878C325.824 378.06 327.236 378.891 327.599 379.052C327.16 378.193 326.516 377.455 325.724 376.904C324.932 376.353 324.016 376.005 323.058 375.891C322.084 375.778 321.096 375.909 320.185 376.274C319.295 376.613 318.511 377.184 317.914 377.927" fill="#07085B"/>
<path d="M310.219 378.79C309.49 378.179 308.612 377.771 307.674 377.61C306.71 377.429 305.715 377.492 304.781 377.792C303.863 378.09 303.032 378.609 302.362 379.303C301.692 379.998 301.203 380.847 300.938 381.775C301.273 381.542 302.494 380.455 303.027 380.166C303.695 379.707 304.426 379.349 305.198 379.104C305.973 378.855 306.778 378.714 307.591 378.685C308.469 378.656 309.347 378.691 310.219 378.79" fill="#07085B"/>
<path d="M318.583 499.04C318.583 499.04 322.491 525.561 296.868 530.182C271.244 534.802 239.362 533.423 239.362 533.423L234.926 594.342L221.548 595.025C221.548 595.025 187.103 510.382 234.78 497.151L277.627 497.36L295.267 496.1C295.267 496.1 313.12 491.69 313.33 492.529C313.539 493.368 318.161 499.461 318.581 499.04" fill="#06BFAD"/>
<path d="M342.131 499.18C342.131 499.18 346.04 525.701 320.417 530.321C294.793 534.942 262.911 533.563 262.911 533.563L258.474 594.482L245.097 595.165C245.097 595.165 210.651 510.522 258.328 497.29L301.175 497.5L318.816 496.24C318.816 496.24 336.668 491.829 336.878 492.669C337.089 493.509 341.709 499.6 342.129 499.179" fill="#02CCC0"/>
<path d="M309.854 412.157C309.854 412.157 292.213 414.397 287.731 418.038C283.248 421.678 261.687 475.166 261.687 475.166L279.61 496.169L317.695 496.449C317.695 496.449 346.26 511.852 364.182 497.29C382.104 482.727 372.863 432.039 362.502 421.118C352.14 410.196 333.657 410.476 333.657 410.476C333.657 410.476 316.855 422.238 309.854 412.157Z" fill="#FF5B7E"/>
<path d="M344.021 438.762C343.412 441.681 342.981 444.634 342.728 447.605C342.576 449.089 342.511 450.578 342.425 452.068C342.381 453.56 342.346 455.052 342.367 456.547C342.384 459.54 342.63 462.528 343.102 465.485C343.527 468.453 344.403 471.34 345.701 474.043C344.841 471.214 344.269 468.305 343.993 465.361C343.668 462.433 343.556 459.479 343.518 456.527C343.457 453.575 343.529 450.616 343.623 447.656C343.716 444.695 343.863 441.732 344.021 438.757" fill="white"/>
<path d="M291.233 436.801C290.427 441.14 289.574 445.461 288.706 449.777C287.82 454.087 286.904 458.39 285.86 462.659C284.816 466.927 283.682 471.172 282.295 475.331C281.611 477.412 280.816 479.456 279.915 481.453C279.054 483.474 277.915 485.364 276.531 487.069C278.097 485.494 279.41 483.684 280.421 481.705C281.46 479.744 282.369 477.717 283.141 475.636C283.934 473.565 284.614 471.456 285.258 469.34C285.879 467.216 286.449 465.078 286.979 462.931C287.484 460.779 287.97 458.623 288.405 456.457C288.825 454.289 289.239 452.12 289.586 449.939C290.307 445.584 290.867 441.201 291.232 436.802" fill="white"/>
<path d="M282.368 484.065C282.479 483.179 289.21 482.188 291.685 482.057C293.559 481.96 305.985 481.545 310.211 481.358L309.9 482.445L309.964 487.244L310.657 490.425C306.95 490.659 297.885 491.014 295.998 491.385C293.639 492.002 291.332 492.805 289.099 493.785C289.099 493.785 287.28 493.371 289.592 492.375C290.999 491.755 292.263 490.85 293.301 489.716C293.618 489.363 293.274 488.73 293.044 488.79C286.75 490.44 286.104 490.712 286.104 490.712C286.104 490.712 278.707 490.67 286.062 489.008C290.47 488.012 292.05 487.436 292.443 486.937C292.61 486.727 292.311 486.01 292.043 485.993C288.223 485.758 281.368 487.111 283.246 486.223C284.777 485.499 289.6 484.705 291.475 484.407C291.591 484.388 291.777 483.69 291.265 483.647C287.627 483.344 282.259 484.886 282.364 484.063" fill="#FFC0BB"/>
<path d="M348.326 473.312C346.777 473.689 345.25 474.122 343.698 474.447C342.154 474.816 340.586 475.084 339.036 475.408C335.914 475.977 332.782 476.473 329.641 476.914C326.497 477.328 323.348 477.707 320.19 478.011C317.032 478.316 313.848 478.591 310.734 478.765L310.315 478.788L310.228 479.151C309.971 480.186 309.779 481.236 309.653 482.295C309.525 483.347 309.462 484.407 309.467 485.467C309.476 486.531 309.568 487.592 309.742 488.642C309.937 489.694 310.246 490.721 310.664 491.705L310.7 491.792L310.768 491.837L314.227 494.158C315.379 494.932 316.536 495.7 317.704 496.453C316.62 495.58 315.521 494.73 314.425 493.883L311.128 491.338L311.232 491.468C310.884 490.516 310.641 489.529 310.507 488.524C310.381 487.514 310.332 486.496 310.359 485.478C310.397 484.458 310.489 483.44 310.636 482.429C310.779 481.424 310.983 480.427 311.248 479.446L310.738 479.833C312.382 479.789 313.941 479.684 315.541 479.571C317.141 479.458 318.721 479.327 320.306 479.161C323.478 478.833 326.644 478.438 329.794 477.938C332.944 477.438 336.076 476.815 339.18 476.081C340.727 475.687 342.275 475.306 343.796 474.825C345.331 474.394 346.835 473.857 348.332 473.324" fill="white"/>
<path d="M202.699 448.423H271.589L291.123 496.1H324.308C324.754 496.1 325.181 496.277 325.496 496.592C325.812 496.908 325.989 497.335 325.989 497.781C325.989 498.227 325.812 498.654 325.496 498.969C325.181 499.284 324.754 499.461 324.308 499.461H225.59L202.699 448.423Z" fill="#07085B"/>
<path d="M236.856 475.629C237.062 476.231 237.438 476.76 237.937 477.154C238.437 477.549 239.04 477.79 239.673 477.851C240.307 477.911 240.944 477.788 241.509 477.496C242.075 477.204 242.544 476.755 242.861 476.203C243.178 475.652 243.329 475.02 243.297 474.385C243.264 473.749 243.049 473.137 242.678 472.62C242.307 472.103 241.794 471.704 241.202 471.471C240.61 471.238 239.963 471.181 239.339 471.305C238.439 471.553 237.673 472.146 237.208 472.956C236.743 473.766 236.616 474.726 236.856 475.629Z" fill="#DAEEF7"/>
<path d="M295.597 361.309C295.597 361.309 289.716 361.497 295.888 356.524C302.061 351.551 318.632 345.719 329.254 351.328C329.254 351.328 331.378 346.813 334.449 347.891C337.519 348.968 332.452 352.075 332.452 352.075C332.452 352.075 336.373 351.949 337.57 353.873C338.454 355.294 336.054 355.357 334.74 355.293C336.972 355.673 345.529 361.076 341.235 378.331C339.709 377.995 331.01 365.381 331.01 365.381C331.01 365.381 311.117 376.434 313.084 367.645C313.084 367.645 292.474 380.507 295.398 369.882C295.398 369.882 287.428 370.466 295.598 361.308" fill="#07085B"/>
<path d="M341.252 378.435C340.658 378.284 340.036 378.281 339.44 378.425C338.844 378.569 338.292 378.856 337.833 379.262C336.061 380.668 336.261 385.608 336.261 385.608C336.261 385.608 327.805 391.061 328.696 367.987C329.645 343.439 335.751 369.956 335.751 369.956L341.252 378.435Z" fill="#07085B"/>
<path d="M781.579 588.087H606.703V597.785H781.579V588.087Z" fill="#DAEEF7"/>
<path d="M776.703 513.052L779.354 525.248C779.596 526.36 779.615 527.509 779.412 528.629C779.208 529.748 778.785 530.816 778.166 531.772C777.548 532.727 776.747 533.551 775.809 534.195C774.872 534.84 773.816 535.293 772.702 535.528L616.526 568.486C615.389 568.726 614.217 568.734 613.077 568.51C611.938 568.286 610.855 567.834 609.895 567.182C608.934 566.529 608.115 565.69 607.486 564.714C606.857 563.737 606.432 562.644 606.235 561.5L604.863 553.489C604.558 551.713 604.818 549.886 605.604 548.265C606.39 546.644 607.664 545.309 609.247 544.449L656.021 519.01C657.012 518.472 658.098 518.133 659.219 518.012L766.355 506.436L767.126 506.333C769.275 506.047 771.454 506.579 773.228 507.825C775.003 509.071 776.243 510.939 776.703 513.058" fill="#DAEEF7"/>
<path d="M618.744 549.298C618.744 549.298 596.44 565.541 612.683 592.331L611.714 599.239L583.106 601.179L556.924 595.845L552.075 552.207L614.865 533.54L618.744 549.298Z" fill="#E03268"/>
<path d="M553.326 613.625H796.165C797.269 613.625 798.327 613.186 799.108 612.406C799.888 611.625 800.326 610.567 800.326 609.463V596.493C800.326 595.389 799.888 594.331 799.108 593.55C798.327 592.77 797.269 592.332 796.165 592.332H553.326C552.222 592.332 551.164 592.77 550.383 593.55C549.603 594.331 549.164 595.389 549.164 596.493V609.463C549.164 610.567 549.603 611.625 550.383 612.406C551.163 613.186 552.222 613.625 553.326 613.625Z" fill="#FF5B7E"/>
<path d="M794.721 510.251L616.226 552.344C614.797 552.678 613.307 552.639 611.898 552.231C604.873 550.214 581.062 545.185 561.025 562.288C559.944 563.221 558.646 563.868 557.25 564.167C555.854 564.467 554.405 564.411 553.036 564.004C551.668 563.596 550.424 562.851 549.419 561.836C548.414 560.822 547.681 559.57 547.287 558.198L544.093 546.969C543.59 545.198 543.675 543.312 544.337 541.594C544.998 539.876 546.2 538.419 547.761 537.443C573.675 521.225 687.132 453.308 761.823 458.477C765.292 458.717 768.65 459.799 771.608 461.627C774.566 463.455 777.035 465.975 778.802 468.97L798.264 501.948C798.71 502.704 798.973 503.556 799.03 504.432C799.087 505.309 798.937 506.187 798.592 506.995C798.248 507.804 797.718 508.52 797.046 509.086C796.373 509.651 795.578 510.051 794.722 510.253" fill="#FF5B7E"/>
<path d="M573.732 575.272C573.732 577.382 574.358 579.444 575.53 581.198C576.702 582.952 578.368 584.32 580.317 585.127C582.266 585.935 584.411 586.146 586.48 585.734C588.55 585.323 590.45 584.307 591.942 582.815C593.434 581.323 594.45 579.422 594.862 577.353C595.273 575.284 595.062 573.139 594.255 571.19C593.447 569.24 592.08 567.574 590.326 566.402C588.572 565.23 586.509 564.604 584.399 564.604C581.57 564.604 578.857 565.728 576.856 567.729C574.856 569.729 573.732 572.443 573.732 575.272Z" fill="#FF5B7E"/>
<path d="M606.001 98.1485C606.001 98.1485 626.083 94.7618 632.82 117.198L624.504 129.647C624.504 129.647 607.063 122.946 606.994 122.289C606.925 121.632 606.001 98.1485 606.001 98.1485Z" fill="#FF5B7E"/>
<path d="M573.679 108.256C573.679 108.256 567.822 117.065 564.835 120.557C557.319 129.344 556.351 126.583 551.68 134.145C546.637 142.303 551.738 147.41 554.638 149.761C557.539 152.111 552.687 160.808 558.089 165.682C565.163 172.063 571.704 166.045 576.569 169.62C581.434 173.196 582.498 178.494 594.035 177.493C605.571 176.492 605.455 138.784 605.455 138.784C605.455 138.784 596.015 118.792 595.641 118.627C595.266 118.462 573.683 108.256 573.683 108.256" fill="#FF5B7E"/>
<path d="M632.82 117.198C632.82 117.198 633.509 124.117 635.797 128.103C641.553 138.13 644.655 134.845 647.848 143.138C651.291 152.089 645.33 156.162 642.045 157.934C638.76 159.706 641.915 169.151 635.701 172.94C627.568 177.898 622.253 170.772 616.812 173.382C611.371 175.993 609.339 181.003 598.193 177.88C587.047 174.757 594.149 137.725 594.149 137.725C594.149 137.725 607.132 119.83 607.531 119.735C607.929 119.64 632.824 117.193 632.824 117.193" fill="#FF5B7E"/>
<path d="M603.684 161.853C603.684 161.853 584.437 158.312 575.585 158.611C566.734 158.911 580.949 181.929 580.949 181.929L595.404 182.249C595.404 182.249 604.266 172.352 603.683 171.2C603.099 170.048 603.711 162.498 603.711 162.498L603.684 161.853Z" fill="#FFC0BB"/>
<path d="M586.522 143.487L581.444 158.896C581.444 158.896 585.864 168.034 599.401 164.093C599.401 164.093 597.856 160.901 599.925 154.33C602.043 147.614 586.519 143.487 586.519 143.487" fill="#FFC0BB"/>
<g opacity="0.6">
<g opacity="0.6">
<g opacity="0.6">
<path opacity="0.6" d="M586.522 143.487L584.139 150.685C585.557 155.946 590.165 159.528 598.852 160.641C598.884 158.494 599.247 156.366 599.928 154.33C602.045 147.614 586.522 143.487 586.522 143.487Z" fill="#FC8D84"/>
</g>
</g>
</g>
<path d="M617.489 132.205C616.39 134.707 617.123 137.444 619.124 138.326C621.126 139.208 623.639 137.89 624.738 135.387C625.837 132.884 625.104 130.147 623.102 129.265C621.101 128.383 618.587 129.702 617.488 132.205" fill="#F99893"/>
<path d="M618.05 143.567C619.25 140.459 620.048 137.211 620.426 133.901C620.505 133.255 620.622 132.617 620.751 131.979C621.334 129.107 621.313 126.146 620.69 123.282C620.067 120.419 618.856 117.716 617.133 115.346C615.41 112.976 613.213 110.989 610.681 109.513C608.15 108.037 605.339 107.104 602.427 106.772C599.516 106.44 596.567 106.717 593.768 107.586C590.97 108.454 588.382 109.895 586.17 111.817C583.958 113.739 582.169 116.099 580.918 118.749C579.666 121.399 578.98 124.28 578.901 127.209C578.299 126.821 577.613 126.579 576.9 126.504C576.187 126.429 575.467 126.523 574.797 126.779C572.259 127.833 571.269 131.258 572.585 134.43C573.901 137.602 577.027 139.32 579.565 138.266C579.91 138.121 580.233 137.928 580.525 137.693C581.304 148.068 589.569 156.281 599.738 156.382C603.737 156.387 607.641 155.159 610.917 152.866C614.193 150.572 616.683 147.325 618.047 143.565" fill="#FFC0BB"/>
<path d="M604.775 127.691C604.383 128.841 604.155 130.04 604.098 131.254C604.062 131.874 604.083 132.496 604.162 133.112C604.237 133.783 604.456 134.431 604.803 135.01C605.265 135.604 605.506 135.796 605.575 136.276C605.599 136.501 605.575 136.728 605.505 136.943C605.435 137.159 605.322 137.357 605.171 137.526C604.386 138.335 603.351 138.856 602.232 139.004C602.857 139.152 603.507 139.152 604.131 139.002C604.755 138.853 605.335 138.559 605.824 138.145C606.103 137.9 606.322 137.596 606.467 137.255C606.612 136.915 606.679 136.545 606.662 136.175C606.578 135.488 606.26 134.85 605.76 134.37C605.504 133.923 605.327 133.435 605.237 132.928C605.124 132.369 605.044 131.805 604.995 131.238C604.894 130.081 604.85 128.899 604.777 127.692" fill="#F99893"/>
<path d="M597.826 129.548C597.823 129.913 597.711 130.269 597.506 130.571C597.3 130.872 597.009 131.106 596.67 131.243C596.332 131.379 595.96 131.412 595.602 131.337C595.245 131.263 594.918 131.084 594.662 130.823C594.406 130.562 594.234 130.231 594.166 129.872C594.099 129.513 594.139 129.143 594.282 128.807C594.425 128.471 594.665 128.185 594.971 127.985C595.276 127.785 595.634 127.681 596 127.684C596.489 127.69 596.956 127.889 597.298 128.238C597.641 128.588 597.831 129.059 597.826 129.548Z" fill="#333333"/>
<path d="M613.661 130.747C613.658 131.112 613.546 131.468 613.34 131.769C613.134 132.07 612.844 132.304 612.505 132.44C612.167 132.577 611.795 132.61 611.438 132.535C611.081 132.46 610.754 132.281 610.498 132.02C610.243 131.76 610.07 131.429 610.003 131.071C609.935 130.712 609.975 130.341 610.118 130.006C610.261 129.67 610.501 129.384 610.806 129.184C611.111 128.984 611.469 128.88 611.834 128.883C612.324 128.888 612.791 129.088 613.133 129.437C613.476 129.787 613.666 130.258 613.661 130.747Z" fill="#333333"/>
<g style="mix-blend-mode:multiply" opacity="0.3">
<g style="mix-blend-mode:multiply" opacity="0.3">
<g style="mix-blend-mode:multiply" opacity="0.3">
<g style="mix-blend-mode:multiply" opacity="0.3">
<path d="M597.502 143.579C598.355 143.318 599.254 143.244 600.138 143.362C601.022 143.479 601.87 143.786 602.625 144.261C602.625 144.261 605.31 142.581 607.428 144.185C607.111 145.341 606.397 146.349 605.41 147.031C604.424 147.712 603.229 148.025 602.036 147.913C600.869 147.908 599.749 147.455 598.907 146.649C598.064 145.842 597.562 144.743 597.505 143.578" fill="#F99893"/>
</g>
</g>
</g>
</g>
<path d="M595.191 142.147C595.685 142.552 596.208 142.92 596.756 143.249C597.293 143.586 597.853 143.884 598.433 144.14C599.578 144.659 600.801 144.986 602.052 145.108C603.302 145.211 604.561 145.072 605.758 144.698C606.964 144.293 608.107 143.722 609.156 143.001C608.678 143.435 608.165 143.829 607.622 144.178C607.068 144.521 606.483 144.813 605.876 145.051C605.261 145.281 604.624 145.445 603.975 145.539C603.322 145.623 602.662 145.64 602.006 145.591C600.699 145.465 599.429 145.086 598.267 144.474C597.111 143.886 596.068 143.099 595.186 142.148" fill="#F99893"/>
<path d="M599.988 125.299C599.096 125.05 598.186 124.866 597.268 124.75C596.415 124.645 595.552 124.658 594.703 124.788C593.858 124.914 593.036 125.164 592.264 125.532C591.659 125.745 590.199 126.677 589.819 126.861C590.249 125.937 590.9 125.134 591.715 124.522C592.529 123.909 593.482 123.507 594.489 123.351C595.512 123.194 596.559 123.294 597.534 123.643C598.485 123.969 599.332 124.541 599.989 125.302" fill="#FF5B7E"/>
<path d="M608.145 125.915C608.889 125.242 609.8 124.778 610.782 124.571C611.792 124.344 612.842 124.371 613.839 124.652C614.819 124.93 615.715 125.445 616.449 126.151C617.183 126.858 617.732 127.735 618.046 128.704C617.687 128.473 616.354 127.371 615.78 127.087C615.059 126.629 614.273 126.28 613.45 126.052C612.623 125.82 611.768 125.702 610.91 125.703C609.983 125.706 609.059 125.778 608.143 125.916" fill="#FF5B7E"/>
<path d="M570.204 256.002C570.204 256.002 564.527 282.714 590.284 289.056C616.04 295.398 648.542 296.043 648.542 296.043L649.143 358.264L662.7 359.817C662.7 359.817 703.154 275.971 655.529 259.458L611.951 256.925L594.095 254.511C594.095 254.511 576.227 248.881 575.96 249.721C575.693 250.561 570.603 256.458 570.203 256.005" fill="#F4A640"/>
<path d="M546.253 254.633C546.253 254.633 540.577 281.346 566.332 287.689C592.087 294.031 624.591 294.675 624.591 294.675L625.191 356.898L638.749 358.45C638.749 358.45 679.202 274.603 631.578 258.09L588 255.557L570.144 253.144C570.144 253.144 552.276 247.513 552.008 248.354C551.74 249.195 546.651 255.091 546.251 254.637" fill="#FEB546"/>
<path d="M632.38 296.459C631.638 296.325 630.896 296.197 630.163 296.023C629.43 295.848 628.706 295.654 627.989 295.439C627.63 295.327 627.268 295.206 626.915 295.075C627.285 294.996 627.65 294.891 628.005 294.762C628.707 294.504 629.375 294.162 629.995 293.742C630.596 293.311 631.154 292.82 631.659 292.278C632.151 291.735 632.588 291.144 632.964 290.514L632.226 291.315C631.964 291.562 631.716 291.825 631.44 292.055C630.911 292.534 630.337 292.96 629.726 293.327C629.121 293.69 628.481 293.99 627.815 294.223C627.163 294.454 626.481 294.591 625.79 294.631L624.586 294.675L625.654 295.172C626.361 295.487 627.093 295.743 627.843 295.938C628.581 296.137 629.328 296.298 630.083 296.419C630.835 296.54 631.589 296.647 632.348 296.703C633.107 296.759 633.864 296.796 634.623 296.79C633.871 296.681 633.122 296.589 632.378 296.454" fill="#DAEEF7"/>
<path d="M625.557 199.352C625.557 199.352 627.311 242.997 632.219 249.828L605.225 243.694V196.196L625.557 199.352Z" fill="#FFC0BB"/>
<path d="M614.057 205.311C614.057 205.311 610.302 216.297 609.617 222.131C607.92 236.621 609.763 246.845 612.761 255.09C616.968 266.659 582.613 262.452 581.912 262.101C581.21 261.75 551.763 250.358 551.763 250.358L546.154 234.057V205.311L547.732 192.165L614.057 205.311Z" fill="#02CCC0"/>
<path d="M531.783 192.165L553.401 199.527C553.401 199.527 549.661 234.116 550.831 239.023C551.83 243.215 567.511 251.559 577.442 256.227C579.039 256.98 580.805 257.3 582.565 257.155C588.223 256.691 598.254 255.814 599.829 255.706C602.301 255.536 609.101 255.71 609.319 256.579C609.522 257.384 604.009 256.498 600.433 257.236C599.93 257.34 600.198 258.011 600.315 258.016C602.213 258.087 607.097 258.296 608.699 258.831C610.67 259.487 603.702 258.967 599.939 259.659C599.677 259.708 599.464 260.456 599.655 260.644C600.104 261.088 601.742 261.474 606.239 261.933C613.74 262.7 606.401 263.63 606.401 263.63C606.401 263.63 605.727 263.437 599.281 262.556C599.045 262.524 598.779 263.193 599.137 263.506C600.305 264.507 601.668 265.254 603.14 265.7C605.553 266.412 603.797 267.041 603.797 267.041C601.464 266.336 599.08 265.817 596.665 265.488C594.744 265.344 585.705 266.08 581.994 266.292L581.71 265.656C576.682 265.51 536.575 264.468 532.718 239.61C530.333 223.905 530.019 207.955 531.782 192.168" fill="#FFC0BB"/>
<path d="M688.92 216.936H620.029L600.496 264.613H567.311C567.087 264.608 566.864 264.648 566.656 264.73C566.448 264.812 566.258 264.935 566.098 265.092C565.938 265.248 565.811 265.435 565.724 265.641C565.637 265.848 565.592 266.069 565.592 266.293C565.592 266.517 565.637 266.739 565.724 266.945C565.811 267.151 565.938 267.338 566.098 267.495C566.258 267.651 566.448 267.774 566.656 267.856C566.864 267.938 567.087 267.978 567.311 267.973H666.025L688.92 216.936Z" fill="#07085B"/>
<path d="M654.757 244.142C654.55 244.744 654.175 245.274 653.675 245.668C653.175 246.062 652.573 246.304 651.939 246.364C651.306 246.425 650.668 246.302 650.103 246.01C649.538 245.717 649.069 245.269 648.752 244.717C648.435 244.165 648.283 243.534 648.316 242.898C648.348 242.263 648.563 241.65 648.934 241.133C649.306 240.617 649.818 240.218 650.41 239.985C651.003 239.752 651.649 239.694 652.273 239.819C653.174 240.066 653.94 240.66 654.405 241.469C654.87 242.279 654.997 243.24 654.757 244.142Z" fill="#DAEEF7"/>
<path d="M603.681 161.857C603.681 161.857 590.596 177.129 575.583 158.615C575.583 158.615 559.179 157.279 547.085 165.863C534.991 174.448 527.749 193.743 527.749 193.743C527.749 193.743 549.659 204.785 555.093 205.311H615.915C622.254 204.647 628.426 202.867 634.144 200.053C634.144 200.053 632.603 169.39 603.681 161.852" fill="#02CCC0"/>
<path d="M563.093 187.908C562.529 189.802 562.02 191.71 561.516 193.622C560.573 197.377 559.706 200.949 559.071 204.788C557.834 204.804 556.597 204.708 555.377 204.501C549.06 203.377 544.911 201.608 539.287 199.305C530.86 195.463 531.997 195.838 527.753 193.743C531.355 196.065 535.089 198.177 538.936 200.066C543.863 202.351 548.571 204.464 555.201 205.631C556.792 205.936 558.421 205.998 560.032 205.815C560.46 203 560.95 200.117 562.294 193.805L563.547 188.023L564.836 182.244C564.21 184.118 563.656 186.014 563.094 187.908" fill="#07085B"/>
<path d="M611.078 177.807C611.935 180.051 612.712 182.306 613.41 184.574C614.11 186.834 614.675 189.133 615.1 191.461C615.537 193.769 615.723 196.118 615.655 198.466C615.568 200.808 612.098 211.828 611.078 214.005C612.518 212.07 616.296 200.96 616.551 198.538C616.797 196.109 616.69 193.656 616.233 191.258C615.796 188.876 615.135 186.54 614.256 184.283C613.41 182.026 612.346 179.857 611.077 177.807" fill="#07085B"/>
<path d="M578.9 127.209C578.9 127.209 601.373 121.789 612.108 106.519C612.108 106.519 612.295 92.6135 591.664 95.7679C571.62 98.8323 566.927 118.339 578.899 127.207" fill="#FF5B7E"/>
<path d="M801.728 622.263H101.683C100.689 622.263 99.7366 621.869 99.0342 621.166C98.3318 620.464 97.9371 619.511 97.9371 618.518V616.795C97.9374 615.801 98.3321 614.849 99.0344 614.146C99.7368 613.444 100.689 613.049 101.683 613.049H801.728C802.721 613.049 803.674 613.444 804.376 614.146C805.079 614.849 805.473 615.801 805.474 616.795V618.518C805.474 619.511 805.079 620.464 804.377 621.166C803.674 621.869 802.721 622.263 801.728 622.263Z" fill="#C4DFE8"/>
<path d="M93.6493 309.542L228.797 232.242L247.063 268.425L108.776 341.585L93.6493 309.542Z" fill="#F4A640"/>
<path d="M348.327 89.3587C348.327 89.3587 347.261 99.8697 338.966 100.597C347.263 101.325 348.327 111.836 348.327 111.836C348.327 111.836 349.393 101.325 357.688 100.597C349.392 99.8697 348.327 89.3587 348.327 89.3587Z" fill="#02CCC0"/>
<path d="M205.017 8.609C205.017 8.609 203.597 22.6097 192.549 23.5782C203.597 24.5467 205.017 38.5475 205.017 38.5475C205.017 38.5475 206.437 24.5467 217.485 23.5782C206.437 22.6097 205.017 8.609 205.017 8.609Z" fill="#FEB546"/>
<path d="M147.135 133.831C147.135 133.831 146.181 143.232 138.762 143.882C146.181 144.533 147.135 153.934 147.135 153.934C147.135 153.934 148.088 144.533 155.507 143.882C148.084 143.232 147.135 133.831 147.135 133.831Z" fill="#FF5B7E"/>
<path d="M779.552 326.617C779.552 326.617 778.132 340.618 767.084 341.586C778.132 342.555 779.552 356.555 779.552 356.555C779.552 356.555 780.971 342.556 792.02 341.586C780.971 340.618 779.552 326.617 779.552 326.617Z" fill="#FF5B7E"/>
<path d="M12.4681 234.866C12.4681 234.866 11.0481 248.864 0 249.832C11.0481 250.801 12.4681 264.801 12.4681 264.801C12.4681 264.801 13.8881 250.801 24.9362 249.832C13.8855 248.864 12.4681 234.866 12.4681 234.866Z" fill="#02CCC0"/>
<path d="M821.533 217.273C821.533 217.273 820.112 231.273 809.065 232.242C820.112 233.21 821.533 247.211 821.533 247.211C821.533 247.211 822.952 233.21 834 232.242C822.952 231.273 821.533 217.273 821.533 217.273Z" fill="#02CCC0"/>
<path d="M489.32 7.62939e-06C489.32 7.62939e-06 487.899 14.0008 476.851 14.9692C487.899 15.9377 489.32 29.9385 489.32 29.9385C489.32 29.9385 490.739 15.9377 501.788 14.9692C490.74 13.9981 489.32 7.62939e-06 489.32 7.62939e-06Z" fill="#FF5B7E"/>
<path d="M726.009 107.468C726.009 107.468 725.237 116.309 719.233 116.92C725.237 117.531 726.009 126.372 726.009 126.372C726.009 126.372 726.781 117.531 732.786 116.92C726.781 116.309 726.009 107.468 726.009 107.468Z" fill="#FEB546"/>
</svg>
