<svg width="649" height="485" viewBox="0 0 649 485" fill="none" xmlns="http://www.w3.org/2000/svg">
<path d="M319.182 366.75L242.457 397.565L147.478 161.07L212.336 135.023C215.483 133.759 219.004 133.796 222.124 135.127C225.244 136.459 227.708 138.975 228.973 142.122L319.182 366.75Z" fill="#F4A640"/>
<path d="M291.594 151.387L144.68 177.432L181.3 383.994L328.213 357.949L291.594 151.387Z" fill="#ADCFD8"/>
<path d="M254.487 179.111L188.881 190.742L189.142 192.215L254.748 180.584L254.487 179.111Z" fill="#55769F"/>
<path d="M267.607 172.933L174.437 189.45L174.698 190.923L267.868 174.406L267.607 172.933Z" fill="#55769F"/>
<path d="M280.944 190.373L167.906 210.412L168.167 211.885L281.205 191.845L280.944 190.373Z" fill="#55769F"/>
<path d="M282.2 197.456L169.162 217.496L169.423 218.969L282.461 198.929L282.2 197.456Z" fill="#55769F"/>
<path d="M284.712 211.624L171.674 231.664L171.935 233.136L284.973 213.097L284.712 211.624Z" fill="#55769F"/>
<path d="M285.967 218.708L172.93 238.748L173.191 240.22L286.228 220.181L285.967 218.708Z" fill="#55769F"/>
<path d="M287.223 225.792L174.186 245.832L174.447 247.304L287.484 227.265L287.223 225.792Z" fill="#55769F"/>
<path d="M292.747 256.95L179.709 276.99L179.971 278.463L293.008 258.423L292.747 256.95Z" fill="#55769F"/>
<path d="M294.049 264.296L181.012 284.335L181.273 285.808L294.31 265.769L294.049 264.296Z" fill="#55769F"/>
<path d="M295.351 271.642L182.314 291.681L182.575 293.154L295.612 273.115L295.351 271.642Z" fill="#55769F"/>
<path d="M296.654 278.988L183.616 299.027L183.878 300.5L296.915 280.461L296.654 278.988Z" fill="#55769F"/>
<path d="M297.956 286.333L184.918 306.373L185.18 307.846L298.217 287.807L297.956 286.333Z" fill="#55769F"/>
<path d="M299.258 293.679L186.221 313.719L186.482 315.191L299.519 295.152L299.258 293.679Z" fill="#55769F"/>
<path d="M300.56 301.024L187.523 321.064L187.784 322.537L300.821 302.497L300.56 301.024Z" fill="#55769F"/>
<path d="M270.422 146.231L126.13 184.204L179.52 387.078L323.812 349.106L270.422 146.231Z" fill="#DAEEF7"/>
<path d="M235.701 176.862L171.271 193.853L171.652 195.299L236.082 178.309L235.701 176.862Z" fill="#55769F"/>
<path d="M248.277 169.666L156.769 193.748L157.149 195.194L248.657 171.112L248.277 169.666Z" fill="#55769F"/>
<path d="M262.996 185.955L151.976 215.172L152.357 216.619L263.376 187.402L262.996 185.955Z" fill="#55769F"/>
<path d="M264.827 192.913L153.807 222.13L154.188 223.576L265.208 194.36L264.827 192.913Z" fill="#55769F"/>
<path d="M268.48 206.771L157.469 236.045L157.85 237.491L268.862 208.217L268.48 206.771Z" fill="#55769F"/>
<path d="M270.32 213.786L159.3 243.002L159.681 244.449L270.701 215.232L270.32 213.786Z" fill="#55769F"/>
<path d="M272.151 220.743L161.131 249.96L161.512 251.406L272.531 222.19L272.151 220.743Z" fill="#55769F"/>
<path d="M280.196 251.288L169.185 280.562L169.566 282.009L280.577 252.735L280.196 251.288Z" fill="#55769F"/>
<path d="M282.095 258.503L171.083 287.777L171.465 289.223L282.476 259.949L282.095 258.503Z" fill="#55769F"/>
<path d="M283.993 265.717L172.981 294.991L173.363 296.438L284.374 267.164L283.993 265.717Z" fill="#55769F"/>
<path d="M285.9 272.989L174.88 302.206L175.261 303.652L286.281 274.436L285.9 272.989Z" fill="#55769F"/>
<path d="M287.799 280.204L176.779 309.421L177.16 310.867L288.18 281.651L287.799 280.204Z" fill="#55769F"/>
<path d="M289.689 287.362L178.678 316.636L179.059 318.082L290.071 288.808L289.689 287.362Z" fill="#55769F"/>
<path d="M291.596 294.633L180.577 323.85L180.958 325.297L291.977 296.08L291.596 294.633Z" fill="#55769F"/>
<path d="M290.071 378.442L135.602 440.478L45.5046 216.141L175.309 136.069C177.023 135.012 178.947 134.342 180.947 134.106C182.946 133.87 184.974 134.074 186.886 134.704C188.799 135.334 190.551 136.374 192.019 137.751C193.488 139.129 194.638 140.811 195.388 142.68L290.071 378.442Z" fill="#FEB546"/>
<path d="M85.7509 404.175L63.7148 403.775C56.0647 389.912 50.4507 377.853 50.4507 377.853C75.339 372.117 96.3436 374.472 113.844 381.199L123.487 404.624L125.551 386.586C168.921 409.99 186.79 459.534 186.79 459.534C186.79 459.534 110.143 451.369 93.891 443.813C87.6171 440.896 79.7108 430.397 72.3693 418.607C78.2436 413.014 85.7482 404.174 85.7482 404.174" fill="#FF5B7E"/>
<path d="M50.451 377.856C50.451 377.856 148.855 419.267 186.79 459.537C186.79 459.537 110.143 451.373 93.8912 443.817C87.6173 440.898 79.7111 430.4 72.3695 418.61C78.2439 413.018 85.7485 404.178 85.7485 404.178L63.7123 403.778C56.0623 389.915 50.4482 377.856 50.4482 377.856" fill="#E03268"/>
<path d="M53.5906 444.041C65.6408 436.62 79.1158 431.813 93.1423 429.932C96.9337 434.647 101.589 440.194 101.589 440.194L102.08 429.142C151.716 426.882 192.844 460.139 192.844 460.139C164.098 478.258 139.573 483.254 119.485 481.635C118.295 477.768 116.61 472 116.61 472L113.062 480.879C104.201 479.487 95.6101 476.727 87.5962 472.699C89.476 468.093 91.4556 462.828 91.4556 462.828L80.7576 468.905C62.8309 457.944 53.5879 444.044 53.5879 444.044" fill="#FF5B7E"/>
<path d="M119.488 481.631C118.298 477.764 116.613 471.996 116.613 471.996L113.064 480.875C104.204 479.483 95.6128 476.723 87.5989 472.695C89.4786 468.089 91.4583 462.824 91.4583 462.824L80.7603 468.901C62.8336 457.94 53.5906 444.04 53.5906 444.04C111.423 437.359 192.847 460.134 192.847 460.134C164.1 478.254 139.575 483.25 119.488 481.631" fill="#E03268"/>
<path d="M343.209 145.881L360.973 132.833C359.216 117.095 356.841 104.009 356.841 104.009C333.206 113.691 317.414 127.738 307.006 143.333L312.653 168.028L300.556 154.491C278.649 198.635 292.656 249.407 292.656 249.407C292.656 249.407 350.533 198.498 359.439 182.949C362.879 176.945 363.274 163.808 362.464 149.943C354.44 148.767 343.209 145.88 343.209 145.88" fill="#02CCC0"/>
<path d="M356.841 104.011C356.841 104.011 300.387 194.629 292.656 249.409C292.656 249.409 350.533 198.5 359.439 182.95C362.879 176.946 363.274 163.81 362.464 149.944C354.44 148.768 343.209 145.881 343.209 145.881L360.973 132.833C359.217 117.095 356.842 104.009 356.842 104.009" fill="#06BFAD"/>
<path d="M392.481 159.872C378.357 160.767 364.578 164.621 352.038 171.182C351.663 177.22 351.062 184.434 351.062 184.434L344.282 175.692C302.446 202.497 288.056 253.394 288.056 253.394C321.991 251.596 344.9 241.522 360.368 228.604C359.109 224.76 357.155 219.077 357.155 219.077L365.177 224.279C371.609 218.028 377.032 210.816 381.251 202.9C377.057 200.224 372.402 197.068 372.402 197.068L384.645 195.855C392.958 176.555 392.481 159.871 392.481 159.871" fill="#02CCC0"/>
<path d="M360.371 228.606C359.111 224.761 357.157 219.078 357.157 219.078L365.18 224.281C371.612 218.029 377.034 210.817 381.253 202.902C377.059 200.226 372.404 197.07 372.404 197.07L384.647 195.856C392.96 176.556 392.484 159.873 392.484 159.873C341.402 187.799 288.058 253.396 288.058 253.396C321.993 251.599 344.902 241.524 360.371 228.606" fill="#06BFAD"/>
<path d="M534.484 224.426H545.047C543.204 223.182 541.029 222.523 538.806 222.536H274.176C260.331 222.536 249.107 232.486 249.107 244.759V258.874C249.107 271.147 260.331 281.097 274.176 281.097L535.848 281.018L534.484 224.426Z" fill="#E03268"/>
<path d="M271.303 258.873V244.758C271.303 232.486 282.526 222.536 296.372 222.536H290.69C276.844 222.536 265.62 232.486 265.62 244.758V258.874C265.62 271.147 276.844 281.096 290.69 281.096H296.297C282.487 281.06 271.304 271.126 271.304 258.874" fill="#FEB546"/>
<path d="M333.28 258.873V244.758C333.28 232.486 344.504 222.536 358.349 222.536H352.667C338.821 222.536 327.597 232.486 327.597 244.758V258.874C327.597 271.147 338.821 281.096 352.667 281.096H358.274C344.464 281.06 333.28 271.126 333.28 258.874" fill="#FEB546"/>
<path d="M384.247 222.588C371.007 222.588 360.274 232.103 360.274 243.84V259.791C360.274 271.529 371.007 281.043 384.247 281.043H548.987V277.476H548.307L506.427 273.96L497.962 244.523C497.962 244.523 514.3 228.255 515.365 227.836C516.43 227.417 548.307 226.144 548.307 226.144L548.986 226.138V222.589L384.247 222.588Z" fill="#FF5B7E"/>
<path d="M538.303 251.71C538.303 234.499 548.336 226.158 548.336 226.158H387.622C375.457 226.158 365.603 234.898 365.603 245.679V257.957C365.603 268.737 375.462 277.478 387.622 277.478H548.336C548.336 277.478 538.303 273.384 538.303 251.713" fill="#DAEEF7"/>
<g style="mix-blend-mode:multiply">
<g style="mix-blend-mode:multiply">
<g style="mix-blend-mode:multiply">
<g style="mix-blend-mode:multiply">
<path d="M365.601 245.68V257.958C365.602 259.54 365.818 261.115 366.243 262.639C371.664 250.882 382.052 239.561 401.828 235.919C448 227.419 548.336 226.159 548.336 226.159H387.621C375.457 226.159 365.603 234.899 365.603 245.679" fill="#DAEEF7"/>
</g>
</g>
</g>
</g>
<path d="M530.127 341.473H542.083C540.048 339.934 537.566 339.103 535.015 339.108H235.507C219.836 339.108 207.133 351.562 207.133 366.924V384.593C207.133 399.955 219.836 412.408 235.507 412.408L531.669 412.31L530.127 341.473Z" fill="#07085B"/>
<path d="M360.088 339.174C345.102 339.174 332.954 351.084 332.954 365.775V385.741C332.954 400.433 345.102 412.342 360.088 412.342H546.541V407.876H545.771L498.37 403.476L488.788 366.629C488.788 366.629 507.28 346.268 508.486 345.742C509.692 345.217 545.77 343.624 545.77 343.624L546.541 343.616V339.174H360.088Z" fill="#55769F"/>
<path d="M534.449 375.627C534.449 354.084 545.805 343.64 545.805 343.64H363.907C350.143 343.64 338.984 354.582 338.984 368.073V383.443C338.984 396.937 350.142 407.876 363.907 407.876H545.805C545.805 407.876 534.449 402.753 534.449 375.627Z" fill="#DAEEF7"/>
<g style="mix-blend-mode:multiply">
<g style="mix-blend-mode:multiply">
<g style="mix-blend-mode:multiply">
<g style="mix-blend-mode:multiply">
<path d="M338.986 368.073V383.443C338.986 385.418 339.23 387.387 339.712 389.303C345.847 374.588 357.605 360.414 379.988 355.857C432.248 345.217 545.806 343.64 545.806 343.64H363.907C350.143 343.64 338.984 354.581 338.984 368.073" fill="#DAEEF7"/>
</g>
</g>
</g>
</g>
<path d="M197.261 282.823H185.301C187.444 281.572 189.886 280.924 192.368 280.947H491.996C507.673 280.947 520.38 290.828 520.38 303.018V317.038C520.38 329.227 507.672 339.109 491.996 339.109L195.719 339.03L197.261 282.823Z" fill="#02CCC0"/>
<path d="M367.367 280.999C382.359 280.999 394.512 290.448 394.512 302.106V317.949C394.512 329.606 382.359 339.056 367.367 339.056H180.841V335.512H181.612L229.031 332.02L238.613 302.783C238.613 302.783 220.115 286.627 218.905 286.21C217.696 285.794 181.606 284.53 181.606 284.53L180.836 284.523V280.998L367.367 280.999Z" fill="#06BFAD"/>
<path d="M192.939 309.923C192.939 292.829 181.578 284.543 181.578 284.543H363.547C377.317 284.543 388.481 293.222 388.481 303.93V316.125C388.481 326.832 377.318 335.512 363.547 335.512H181.581C181.581 335.512 192.942 331.447 192.942 309.923" fill="#DAEEF7"/>
<g style="mix-blend-mode:multiply">
<g style="mix-blend-mode:multiply">
<g style="mix-blend-mode:multiply">
<g style="mix-blend-mode:multiply">
<path d="M388.479 303.929V316.124C388.477 317.702 388.232 319.27 387.752 320.773C381.615 309.097 369.852 297.851 347.461 294.234C295.183 285.791 181.575 284.541 181.575 284.541H363.547C377.317 284.541 388.48 293.22 388.48 303.928" fill="#DAEEF7"/>
</g>
</g>
</g>
</g>
<g opacity="0.5">
<g opacity="0.5">
<g opacity="0.5">
<path opacity="0.5" d="M465.491 317.037V303.018C465.491 290.828 452.783 280.946 437.107 280.946H465.559C481.236 280.946 493.944 290.828 493.944 303.018V317.037C493.944 329.226 481.236 339.108 465.559 339.108L437.484 339.101C452.986 338.944 465.491 329.128 465.491 317.037" fill="#55769F"/>
</g>
</g>
</g>
<path d="M174.641 414.654H161.747C164.043 413.261 166.681 412.535 169.366 412.558H492.372C509.271 412.558 522.971 423.599 522.971 437.218V452.881C522.971 466.501 509.271 477.541 492.372 477.541L172.978 477.454L174.641 414.654Z" fill="#FEB546"/>
<path d="M358.018 412.615C374.179 412.615 387.28 423.173 387.28 436.197V453.899C387.28 466.923 374.179 477.48 358.018 477.48H156.939V473.526H157.77L208.889 469.625L219.218 436.959C219.218 436.959 199.277 418.908 197.976 418.442C196.675 417.977 157.767 416.564 157.767 416.564L156.936 416.557V412.62L358.018 412.615Z" fill="#F4A640"/>
<path d="M169.98 444.932C169.98 425.836 157.733 416.575 157.733 416.575H353.899C368.746 416.575 380.775 426.273 380.775 438.233V451.859C380.775 463.82 368.741 473.521 353.897 473.521H157.736C157.736 473.521 169.983 468.979 169.983 444.93" fill="#DAEEF7"/>
<path d="M181.13 459.075L183.875 465.199C183.984 465.442 183.992 465.718 183.898 465.967C183.803 466.215 183.613 466.416 183.37 466.525L169.031 472.953C168.807 473.054 168.556 473.079 168.315 473.025C168.075 472.971 167.859 472.84 167.7 472.652C167.54 472.465 167.446 472.231 167.431 471.985C167.416 471.739 167.481 471.495 167.616 471.29L173.165 462.645C173.165 462.645 177.552 463.448 181.13 459.074" fill="#07085B"/>
<path d="M199.347 459.075L202.093 465.199C202.147 465.319 202.176 465.449 202.18 465.581C202.184 465.712 202.162 465.844 202.115 465.967C202.068 466.09 201.997 466.203 201.907 466.299C201.816 466.394 201.708 466.472 201.587 466.525L187.248 472.953C187.023 473.054 186.772 473.079 186.532 473.025C186.292 472.971 186.076 472.84 185.916 472.652C185.757 472.465 185.663 472.231 185.648 471.985C185.633 471.739 185.698 471.495 185.833 471.29L191.382 462.645C191.382 462.645 195.769 463.448 199.347 459.074" fill="#07085B"/>
<path d="M506.92 275.439L504.175 281.563C504.121 281.683 504.091 281.813 504.088 281.944C504.084 282.076 504.106 282.207 504.153 282.331C504.2 282.454 504.27 282.567 504.361 282.662C504.451 282.758 504.56 282.835 504.68 282.889L519.019 289.317C519.244 289.417 519.495 289.442 519.735 289.388C519.975 289.334 520.191 289.203 520.35 289.016C520.51 288.829 520.604 288.595 520.619 288.349C520.634 288.104 520.569 287.86 520.434 287.654L514.886 279.009C514.886 279.009 510.499 279.812 506.92 275.438" fill="#07085B"/>
<path d="M488.335 274.71L485.59 280.834C485.536 280.954 485.506 281.084 485.502 281.216C485.499 281.348 485.521 281.479 485.568 281.602C485.615 281.725 485.686 281.838 485.776 281.934C485.867 282.03 485.975 282.107 486.095 282.16L500.435 288.588C500.659 288.689 500.91 288.714 501.15 288.659C501.39 288.605 501.606 288.475 501.765 288.287C501.925 288.1 502.019 287.866 502.034 287.621C502.05 287.375 501.985 287.131 501.849 286.926L496.301 278.281C496.301 278.281 491.914 279.084 488.335 274.71" fill="#07085B"/>
<g style="mix-blend-mode:multiply">
<g style="mix-blend-mode:multiply">
<g style="mix-blend-mode:multiply">
<g style="mix-blend-mode:multiply">
<path d="M380.775 438.234V451.86C380.773 453.621 380.509 455.371 379.991 457.054C373.375 444.006 360.695 431.443 336.556 427.403C280.199 417.97 157.73 416.572 157.73 416.572H353.9C368.746 416.576 380.775 426.273 380.775 438.234Z" fill="#DAEEF7"/>
</g>
</g>
</g>
</g>
<path d="M230.32 290.239L231.844 299.802L235.066 287.052C235.066 287.052 230.551 284.861 230.352 285.658C230.243 287.183 230.232 288.713 230.32 290.24" fill="#07085B"/>
<path d="M255.947 310.825L257.342 327.357L242.753 326.66L244.435 312.02L255.947 310.825Z" fill="#FFC0BB"/>
<path d="M243.634 318.981L244.434 312.019L255.946 310.823L256.429 316.549C254.14 318.829 250.024 321.193 243.634 318.98" fill="#F99893"/>
<path d="M234.69 299.685C235.567 301.499 235.102 303.539 233.65 304.239C232.198 304.938 230.311 304.038 229.437 302.224C228.562 300.41 229.025 298.37 230.476 297.671C231.928 296.972 233.815 297.871 234.69 299.685Z" fill="#F99893"/>
<path d="M232.573 301.014C232.496 300.539 232.393 300.074 232.281 299.608C231.774 297.508 231.709 295.325 232.09 293.198C232.471 291.071 233.291 289.046 234.496 287.253C235.702 285.46 237.267 283.936 239.093 282.78C240.918 281.624 242.964 280.86 245.101 280.537C247.237 280.213 249.418 280.338 251.504 280.902C253.59 281.466 255.536 282.458 257.218 283.814C258.9 285.171 260.282 286.862 261.276 288.781C262.269 290.7 262.853 292.804 262.99 294.961C263.424 294.658 263.922 294.461 264.446 294.386C264.969 294.312 265.503 294.362 266.004 294.532C267.902 295.24 268.722 297.737 267.839 300.11C266.955 302.484 264.697 303.834 262.799 303.126C262.541 303.029 262.297 302.895 262.075 302.73C261.781 310.396 255.914 316.67 248.421 317.023C244.875 317.182 241.401 315.987 238.703 313.68C235.106 311.035 233.285 305.422 232.574 301.015" fill="#FFC0BB"/>
<path d="M243.936 296.015C243.906 296.908 243.899 297.782 243.853 298.634C243.853 299.431 243.689 300.219 243.371 300.95C243.013 301.32 242.794 301.802 242.753 302.316C242.751 302.592 242.811 302.865 242.929 303.114C243.046 303.364 243.218 303.584 243.433 303.758C243.807 304.051 244.245 304.251 244.711 304.342C245.177 304.433 245.658 304.412 246.115 304.281C245.291 304.196 244.518 303.837 243.922 303.262C243.809 303.143 243.722 303.002 243.667 302.848C243.611 302.694 243.589 302.53 243.6 302.366C243.636 302.039 243.736 301.972 244.133 301.424C244.375 300.984 244.518 300.497 244.555 299.997C244.596 299.539 244.594 299.079 244.548 298.622C244.471 297.728 244.265 296.851 243.937 296.016" fill="#F99893"/>
<path d="M249.107 297.196C249.12 297.464 249.212 297.723 249.372 297.939C249.531 298.155 249.752 298.318 250.004 298.409C250.257 298.5 250.531 298.514 250.792 298.449C251.053 298.385 251.289 298.244 251.47 298.045C251.65 297.847 251.768 297.599 251.808 297.333C251.848 297.067 251.809 296.796 251.695 296.553C251.58 296.309 251.397 296.106 251.167 295.967C250.937 295.828 250.67 295.76 250.402 295.773C250.224 295.781 250.048 295.824 249.887 295.9C249.725 295.976 249.58 296.083 249.459 296.215C249.339 296.348 249.246 296.502 249.185 296.671C249.125 296.839 249.098 297.017 249.107 297.196" fill="#333333"/>
<path d="M237.471 298.508C237.484 298.776 237.576 299.035 237.736 299.251C237.895 299.467 238.116 299.631 238.368 299.722C238.621 299.813 238.895 299.826 239.156 299.762C239.417 299.697 239.653 299.556 239.834 299.358C240.014 299.159 240.132 298.911 240.172 298.645C240.212 298.38 240.173 298.108 240.059 297.865C239.944 297.622 239.761 297.418 239.531 297.279C239.301 297.14 239.035 297.073 238.766 297.085C238.588 297.093 238.412 297.136 238.251 297.212C238.089 297.288 237.944 297.396 237.823 297.528C237.703 297.66 237.61 297.815 237.549 297.983C237.489 298.151 237.462 298.329 237.471 298.508" fill="#333333"/>
<path d="M251.39 306.409C251.036 306.72 250.66 307.005 250.266 307.263C249.879 307.525 249.474 307.76 249.054 307.964C248.224 308.378 247.332 308.652 246.413 308.776C245.495 308.884 244.564 308.815 243.672 308.572C242.772 308.306 241.914 307.916 241.121 307.413C241.847 308.039 242.686 308.521 243.592 308.835C244.513 309.146 245.492 309.246 246.457 309.128C247.416 309 248.342 308.687 249.181 308.205C250.017 307.74 250.765 307.131 251.39 306.407" fill="#F99893"/>
<path d="M247.398 294.123C248.049 293.916 248.714 293.757 249.388 293.648C250.013 293.547 250.649 293.533 251.278 293.606C251.904 293.676 252.517 293.839 253.096 294.088C253.549 294.229 254.648 294.876 254.931 295.001C254.589 294.333 254.088 293.759 253.471 293.33C252.855 292.901 252.142 292.63 251.397 292.542C250.638 292.454 249.87 292.556 249.161 292.84C248.468 293.104 247.858 293.548 247.394 294.126" fill="#07085B"/>
<path d="M241.406 294.798C240.838 294.322 240.155 294.005 239.425 293.879C238.675 293.739 237.901 293.787 237.174 294.021C236.459 294.253 235.813 294.657 235.291 295.197C234.77 295.738 234.389 296.399 234.184 297.121C234.444 296.94 235.394 296.093 235.809 295.869C236.328 295.511 236.898 295.233 237.499 295.042C238.101 294.849 238.728 294.739 239.361 294.716C240.043 294.693 240.727 294.72 241.406 294.798" fill="#07085B"/>
<path d="M247.914 388.374C247.914 388.374 250.955 409.011 231.016 412.607C211.076 416.203 186.266 415.13 186.266 415.13L182.814 462.535L172.404 463.067C172.404 463.067 145.599 397.199 182.7 386.903L216.042 387.066L229.77 386.086C229.77 386.086 243.663 382.654 243.826 383.307C243.989 383.96 247.585 388.701 247.912 388.374" fill="#06BFAD"/>
<path d="M266.239 388.483C266.239 388.483 269.281 409.12 249.341 412.716C229.401 416.312 204.591 415.239 204.591 415.239L201.139 462.644L190.729 463.176C190.729 463.176 163.924 397.309 201.025 387.012L234.368 387.175L248.095 386.195C248.095 386.195 261.987 382.762 262.151 383.416C262.315 384.07 265.91 388.81 266.237 388.482" fill="#02CCC0"/>
<path d="M241.121 320.763C241.121 320.763 227.394 322.506 223.905 325.339C220.417 328.172 203.639 369.795 203.639 369.795L217.586 386.139L247.223 386.358C247.223 386.358 269.452 398.343 283.398 387.011C297.345 375.679 290.154 336.235 282.091 327.736C274.027 319.237 259.645 319.455 259.645 319.455C259.645 319.455 246.57 328.608 241.121 320.763" fill="#FF5B7E"/>
<path d="M267.709 341.467C267.236 343.738 266.9 346.036 266.704 348.348C266.585 349.503 266.534 350.662 266.468 351.821C266.433 352.982 266.406 354.143 266.422 355.306C266.436 357.636 266.627 359.961 266.995 362.262C267.325 364.572 268.007 366.818 269.017 368.922C268.348 366.72 267.902 364.456 267.688 362.165C267.435 359.887 267.348 357.588 267.318 355.291C267.27 352.994 267.327 350.691 267.4 348.387C267.472 346.084 267.586 343.778 267.709 341.463" fill="white"/>
<path d="M226.631 339.941C226.004 343.317 225.34 346.68 224.664 350.038C223.975 353.393 223.262 356.741 222.45 360.063C221.638 363.384 220.755 366.687 219.676 369.924C219.143 371.544 218.525 373.134 217.824 374.688C217.154 376.26 216.267 377.732 215.19 379.058C216.409 377.832 217.43 376.424 218.217 374.884C219.026 373.358 219.733 371.78 220.334 370.161C220.951 368.55 221.48 366.909 221.981 365.262C222.465 363.609 222.908 361.945 223.32 360.275C223.714 358.6 224.092 356.922 224.43 355.237C224.757 353.55 225.079 351.861 225.349 350.165C225.91 346.775 226.346 343.365 226.63 339.942" fill="white"/>
<path d="M219.732 376.721C219.819 376.031 225.057 375.26 226.983 375.158C228.441 375.082 238.111 374.759 241.399 374.614L241.157 375.46L241.207 379.194L241.747 381.669C238.862 381.852 231.808 382.128 230.339 382.417C228.503 382.897 226.708 383.522 224.97 384.285C224.97 384.285 223.555 383.962 225.354 383.187C226.449 382.705 227.432 382.001 228.241 381.118C228.487 380.843 228.219 380.351 228.04 380.398C223.142 381.682 222.639 381.893 222.639 381.893C222.639 381.893 216.883 381.86 222.607 380.567C226.037 379.792 227.267 379.344 227.573 378.956C227.702 378.792 227.47 378.234 227.261 378.221C224.289 378.038 218.954 379.091 220.416 378.4C221.607 377.837 225.36 377.219 226.82 376.986C226.909 376.972 227.054 376.429 226.656 376.395C223.825 376.159 219.648 377.36 219.729 376.719" fill="#FFC0BB"/>
<path d="M271.06 368.353C269.854 368.646 268.666 368.983 267.458 369.236C266.256 369.523 265.037 369.731 263.83 369.984C261.401 370.427 258.964 370.813 256.519 371.156C254.073 371.477 251.622 371.772 249.165 372.009C246.707 372.247 244.229 372.461 241.806 372.596L241.48 372.614L241.412 372.896C241.212 373.702 241.063 374.519 240.965 375.343C240.865 376.162 240.817 376.986 240.82 377.811C240.827 378.639 240.899 379.465 241.034 380.282C241.186 381.1 241.426 381.899 241.752 382.665L241.78 382.733L241.833 382.769L244.525 384.574C245.421 385.176 246.321 385.774 247.23 386.36C246.387 385.681 245.531 385.019 244.678 384.36L242.113 382.38L242.194 382.481C241.923 381.74 241.734 380.972 241.63 380.19C241.532 379.404 241.493 378.612 241.514 377.82C241.544 377.026 241.616 376.234 241.73 375.447C241.841 374.665 242 373.889 242.206 373.126L241.809 373.427C243.089 373.393 244.302 373.311 245.547 373.223C246.792 373.135 248.021 373.034 249.255 372.904C251.723 372.649 254.187 372.341 256.638 371.952C259.089 371.564 261.526 371.078 263.942 370.508C265.146 370.2 266.351 369.904 267.535 369.53C268.729 369.195 269.899 368.777 271.064 368.361" fill="white"/>
<path d="M157.736 348.985H211.345L226.545 386.086H252.369C252.716 386.086 253.049 386.224 253.294 386.469C253.539 386.714 253.677 387.047 253.677 387.394C253.677 387.741 253.539 388.073 253.294 388.319C253.049 388.564 252.716 388.702 252.369 388.702H175.549L157.736 348.985Z" fill="#07085B"/>
<path d="M184.316 370.156C184.476 370.624 184.769 371.036 185.158 371.343C185.546 371.65 186.015 371.838 186.508 371.885C187.001 371.932 187.497 371.836 187.937 371.609C188.377 371.381 188.742 371.032 188.989 370.603C189.235 370.173 189.353 369.682 189.328 369.188C189.303 368.693 189.136 368.216 188.847 367.814C188.557 367.412 188.159 367.102 187.698 366.92C187.237 366.739 186.734 366.694 186.248 366.791C185.548 366.984 184.952 367.446 184.59 368.076C184.228 368.706 184.129 369.453 184.316 370.156Z" fill="#DAEEF7"/>
<path d="M230.027 281.194C230.027 281.194 225.45 281.341 230.253 277.471C235.057 273.601 247.953 269.062 256.218 273.427C256.218 273.427 257.871 269.914 260.26 270.752C262.65 271.591 258.707 274.009 258.707 274.009C258.707 274.009 261.758 273.91 262.689 275.408C263.378 276.514 261.509 276.563 260.487 276.513C262.224 276.808 268.883 281.013 265.541 294.441C264.354 294.179 257.584 284.363 257.584 284.363C257.584 284.363 242.104 292.964 243.635 286.125C243.635 286.125 227.597 296.133 229.872 287.866C229.872 287.866 223.67 288.32 230.028 281.194" fill="#07085B"/>
<path d="M265.554 294.522C265.092 294.404 264.608 294.402 264.144 294.514C263.681 294.626 263.251 294.85 262.894 295.165C261.515 296.259 261.67 300.104 261.67 300.104C261.67 300.104 255.09 304.347 255.784 286.391C256.522 267.289 261.274 287.924 261.274 287.924L265.554 294.522Z" fill="#07085B"/>
<path d="M608.207 457.668H472.122V465.215H608.207V457.668Z" fill="#DAEEF7"/>
<path d="M604.413 399.277L606.476 408.768C606.664 409.633 606.679 410.527 606.52 411.399C606.362 412.27 606.033 413.101 605.552 413.844C605.07 414.588 604.447 415.229 603.717 415.731C602.988 416.232 602.166 416.585 601.299 416.767L479.766 442.415C478.882 442.601 477.969 442.608 477.083 442.433C476.196 442.259 475.354 441.907 474.606 441.4C473.859 440.892 473.221 440.239 472.732 439.479C472.243 438.72 471.912 437.869 471.759 436.978L470.69 430.744C470.454 429.362 470.655 427.941 471.267 426.679C471.879 425.418 472.87 424.379 474.102 423.709L510.501 403.914C511.272 403.495 512.117 403.231 512.989 403.137L596.36 394.129L596.96 394.049C598.633 393.826 600.328 394.24 601.709 395.21C603.089 396.179 604.055 397.633 604.413 399.282" fill="#DAEEF7"/>
<path d="M481.492 427.483C481.492 427.483 464.136 440.124 476.776 460.97L476.022 466.347L453.76 467.856L433.385 463.705L429.612 429.747L478.474 415.221L481.492 427.483Z" fill="#E03268"/>
<path d="M430.586 477.541H619.558C620.417 477.541 621.24 477.2 621.848 476.593C622.455 475.985 622.796 475.161 622.796 474.303V464.209C622.796 463.351 622.455 462.527 621.848 461.92C621.24 461.312 620.417 460.971 619.558 460.971H430.586C429.727 460.971 428.903 461.312 428.296 461.92C427.689 462.527 427.347 463.351 427.347 464.209V474.303C427.347 475.161 427.689 475.985 428.296 476.593C428.903 477.2 429.727 477.541 430.586 477.541" fill="#FF5B7E"/>
<path d="M618.434 397.098L479.533 429.854C478.421 430.114 477.262 430.083 476.165 429.766C470.698 428.196 452.17 424.282 436.577 437.591C435.736 438.318 434.726 438.821 433.639 439.054C432.553 439.288 431.425 439.244 430.36 438.927C429.295 438.61 428.327 438.03 427.545 437.24C426.763 436.451 426.193 435.477 425.886 434.409L423.401 425.671C423.009 424.293 423.076 422.825 423.59 421.488C424.105 420.151 425.04 419.017 426.255 418.258C446.421 405.637 534.71 352.786 592.833 356.808C595.533 356.996 598.146 357.837 600.448 359.259C602.75 360.682 604.671 362.643 606.046 364.974L621.191 390.636C621.538 391.225 621.742 391.888 621.787 392.57C621.831 393.252 621.715 393.935 621.447 394.564C621.178 395.193 620.766 395.751 620.243 396.191C619.72 396.631 619.1 396.942 618.435 397.099" fill="#FF5B7E"/>
<path d="M446.465 447.696C446.465 449.337 446.952 450.942 447.864 452.308C448.776 453.673 450.073 454.737 451.589 455.365C453.106 455.993 454.775 456.158 456.386 455.837C457.996 455.517 459.475 454.726 460.636 453.565C461.797 452.404 462.587 450.925 462.908 449.315C463.228 447.705 463.064 446.036 462.435 444.519C461.807 443.002 460.743 441.706 459.378 440.794C458.013 439.881 456.408 439.395 454.766 439.395C452.565 439.395 450.453 440.269 448.896 441.826C447.34 443.383 446.465 445.494 446.465 447.696Z" fill="#FF5B7E"/>
<path d="M471.577 76.4088C471.577 76.4088 487.204 73.7734 492.447 91.2325L485.975 100.92C485.975 100.92 472.402 95.7056 472.349 95.1945C472.295 94.6835 471.577 76.4088 471.577 76.4088" fill="#FF5B7E"/>
<path d="M446.424 84.2744C446.424 84.2744 441.866 91.1294 439.542 93.847C433.693 100.684 432.94 98.5361 429.305 104.421C425.381 110.769 429.35 114.743 431.607 116.572C433.864 118.402 430.088 125.169 434.292 128.962C439.797 133.927 444.887 129.244 448.673 132.027C452.459 134.809 453.287 138.932 462.264 138.153C471.242 137.374 471.151 108.031 471.151 108.031C471.151 108.031 463.806 92.4736 463.514 92.3451C463.223 92.2167 446.427 84.2744 446.427 84.2744" fill="#FF5B7E"/>
<path d="M492.446 91.2329C492.446 91.2329 492.982 96.6172 494.762 99.7188C499.242 107.522 501.656 104.966 504.141 111.419C506.82 118.384 502.181 121.554 499.625 122.933C497.068 124.312 499.524 131.662 494.688 134.61C488.359 138.469 484.223 132.923 479.989 134.955C475.755 136.986 474.174 140.885 465.5 138.454C456.827 136.024 462.353 107.206 462.353 107.206C462.353 107.206 472.456 93.2812 472.766 93.2071C473.076 93.133 492.449 91.2295 492.449 91.2295" fill="#FF5B7E"/>
<path d="M469.773 125.983C469.773 125.983 454.796 123.227 447.907 123.46C441.019 123.693 452.081 141.605 452.081 141.605L463.33 141.854C463.33 141.854 470.226 134.153 469.772 133.256C469.318 132.36 469.794 126.484 469.794 126.484L469.773 125.983Z" fill="#FFC0BB"/>
<path d="M456.418 111.69L452.467 123.681C452.467 123.681 455.906 130.793 466.44 127.726C466.44 127.726 465.238 125.242 466.848 120.128C468.496 114.902 456.416 111.69 456.416 111.69" fill="#FFC0BB"/>
<g opacity="0.6">
<g opacity="0.6">
<g opacity="0.6">
<path opacity="0.6" d="M456.418 111.69L454.564 117.292C455.668 121.386 459.253 124.173 466.013 125.039C466.038 123.369 466.32 121.712 466.85 120.128C468.498 114.902 456.418 111.69 456.418 111.69" fill="#FC8D84"/>
</g>
</g>
</g>
<path d="M480.516 102.911C479.661 104.858 480.231 106.988 481.789 107.674C483.347 108.361 485.302 107.335 486.157 105.387C487.012 103.439 486.442 101.309 484.884 100.623C483.327 99.9367 481.371 100.963 480.515 102.911" fill="#F99893"/>
<path d="M480.953 111.753C481.887 109.334 482.508 106.806 482.801 104.23C482.863 103.728 482.954 103.231 483.055 102.735C483.508 100.5 483.492 98.1956 483.007 95.9674C482.523 93.7391 481.58 91.636 480.239 89.7915C478.898 87.947 477.188 86.4014 475.218 85.2528C473.248 84.1042 471.061 83.3777 468.796 83.1195C466.53 82.8613 464.235 83.0769 462.057 83.7527C459.879 84.4285 457.866 85.5497 456.144 87.0452C454.423 88.5407 453.031 90.3778 452.057 92.4398C451.083 94.5018 450.549 96.7437 450.488 99.0233C450.019 98.7208 449.486 98.5328 448.931 98.4746C448.376 98.4164 447.815 98.4896 447.294 98.6882C445.319 99.5085 444.549 102.174 445.573 104.642C446.597 107.11 449.029 108.448 451.004 107.627C451.273 107.514 451.525 107.364 451.752 107.182C452.358 115.255 458.79 121.646 466.703 121.725C469.815 121.729 472.852 120.773 475.402 118.988C477.951 117.204 479.889 114.677 480.95 111.751" fill="#FFC0BB"/>
<path d="M470.622 99.3984C470.317 100.293 470.14 101.226 470.095 102.17C470.067 102.653 470.084 103.137 470.146 103.617C470.204 104.139 470.374 104.643 470.644 105.094C471.004 105.556 471.192 105.706 471.245 106.079C471.263 106.254 471.245 106.431 471.19 106.598C471.136 106.766 471.048 106.92 470.931 107.051C470.32 107.681 469.514 108.087 468.644 108.202C469.13 108.317 469.636 108.317 470.121 108.2C470.607 108.084 471.058 107.856 471.439 107.533C471.655 107.343 471.826 107.106 471.939 106.841C472.052 106.576 472.104 106.289 472.091 106.001C472.025 105.466 471.778 104.969 471.389 104.596C471.19 104.248 471.052 103.868 470.982 103.473C470.894 103.039 470.832 102.6 470.794 102.158C470.715 101.258 470.68 100.338 470.624 99.3991" fill="#F99893"/>
<path d="M465.215 100.843C465.212 101.128 465.125 101.405 464.965 101.639C464.805 101.874 464.579 102.056 464.315 102.162C464.052 102.268 463.762 102.294 463.484 102.236C463.206 102.178 462.951 102.038 462.753 101.835C462.554 101.632 462.419 101.375 462.367 101.096C462.314 100.817 462.345 100.528 462.457 100.266C462.568 100.005 462.755 99.7825 462.993 99.6271C463.23 99.4716 463.509 99.3902 463.793 99.3931C464.174 99.3973 464.538 99.5523 464.804 99.8242C465.071 100.096 465.218 100.463 465.215 100.843" fill="#333333"/>
<path d="M477.537 101.776C477.535 102.06 477.448 102.337 477.287 102.572C477.127 102.806 476.901 102.988 476.638 103.094C476.374 103.2 476.085 103.226 475.807 103.168C475.529 103.109 475.275 102.97 475.076 102.767C474.877 102.565 474.743 102.307 474.69 102.028C474.638 101.749 474.669 101.461 474.78 101.199C474.892 100.938 475.078 100.716 475.316 100.56C475.553 100.405 475.832 100.323 476.116 100.326C476.496 100.33 476.86 100.485 477.127 100.757C477.393 101.029 477.541 101.396 477.537 101.776" fill="#333333"/>
<g style="mix-blend-mode:multiply" opacity="0.3">
<g style="mix-blend-mode:multiply" opacity="0.3">
<g style="mix-blend-mode:multiply" opacity="0.3">
<g style="mix-blend-mode:multiply" opacity="0.3">
<path d="M464.963 111.762C465.626 111.559 466.326 111.501 467.014 111.593C467.702 111.684 468.362 111.923 468.949 112.293C468.949 112.293 471.038 110.985 472.687 112.234C472.44 113.133 471.884 113.917 471.117 114.448C470.349 114.979 469.42 115.222 468.491 115.135C467.583 115.13 466.711 114.778 466.056 114.151C465.4 113.523 465.009 112.668 464.965 111.761" fill="#F99893"/>
</g>
</g>
</g>
</g>
<path d="M463.164 110.647C463.549 110.962 463.956 111.249 464.382 111.505C464.8 111.767 465.236 111.999 465.688 112.198C466.578 112.602 467.53 112.857 468.504 112.951C469.476 113.032 470.456 112.923 471.387 112.633C472.326 112.317 473.216 111.873 474.031 111.312C473.66 111.65 473.261 111.956 472.838 112.227C472.407 112.495 471.952 112.722 471.479 112.907C471.001 113.086 470.505 113.214 470 113.287C469.492 113.352 468.978 113.366 468.468 113.327C467.451 113.229 466.463 112.934 465.558 112.459C464.659 112.001 463.847 111.388 463.16 110.648" fill="#F99893"/>
<path d="M466.897 97.5366C466.203 97.3429 465.495 97.2003 464.78 97.1098C464.117 97.0281 463.445 97.0379 462.785 97.1391C462.127 97.2372 461.487 97.4323 460.887 97.7181C460.416 97.8839 459.28 98.6097 458.984 98.7524C459.319 98.0336 459.825 97.4084 460.459 96.932C461.093 96.4557 461.834 96.1428 462.618 96.0211C463.414 95.8987 464.229 95.9767 464.987 96.2481C465.727 96.5018 466.386 96.9474 466.898 97.5393" fill="#FF5B7E"/>
<path d="M473.245 98.0166C473.824 97.4926 474.532 97.1317 475.297 96.9707C476.083 96.7937 476.9 96.8154 477.675 97.0339C478.438 97.25 479.136 97.6507 479.707 98.2005C480.278 98.7504 480.705 99.4325 480.95 100.187C480.67 100.007 479.633 99.1495 479.186 98.9286C478.625 98.572 478.014 98.3006 477.373 98.1233C476.73 97.9423 476.064 97.8509 475.396 97.8515C474.675 97.8542 473.956 97.9096 473.243 98.0173" fill="#FF5B7E"/>
<path d="M443.72 199.247C443.72 199.247 439.302 220.034 459.345 224.969C479.388 229.904 504.681 230.406 504.681 230.406L505.148 278.825L515.698 280.034C515.698 280.034 547.179 214.786 510.118 201.936L476.206 199.965L462.311 198.087C462.311 198.087 448.407 193.706 448.199 194.359C447.991 195.013 444.03 199.602 443.719 199.249" fill="#F4A640"/>
<path d="M425.082 198.182C425.082 198.182 420.664 218.969 440.707 223.905C460.749 228.841 486.042 229.342 486.042 229.342L486.51 277.762L497.06 278.969C497.06 278.969 528.54 213.722 491.48 200.872L457.568 198.901L443.673 197.023C443.673 197.023 429.769 192.641 429.56 193.296C429.351 193.95 425.392 198.538 425.08 198.185" fill="#FEB546"/>
<path d="M492.104 230.73C491.527 230.625 490.949 230.526 490.379 230.39C489.809 230.254 489.245 230.103 488.687 229.936C488.407 229.848 488.126 229.755 487.852 229.653C488.14 229.591 488.423 229.51 488.7 229.409C489.246 229.208 489.766 228.942 490.248 228.616C490.716 228.28 491.15 227.898 491.543 227.476C491.926 227.053 492.266 226.593 492.558 226.103L491.984 226.726C491.78 226.919 491.587 227.123 491.372 227.303C490.961 227.675 490.514 228.007 490.038 228.292C489.568 228.575 489.07 228.809 488.551 228.989C488.044 229.169 487.514 229.276 486.976 229.307L486.039 229.341L486.87 229.728C487.421 229.973 487.99 230.173 488.573 230.324C489.147 230.479 489.729 230.604 490.316 230.699C490.902 230.793 491.489 230.876 492.079 230.919C492.67 230.963 493.259 230.992 493.85 230.987C493.264 230.902 492.681 230.83 492.102 230.726" fill="#DAEEF7"/>
<path d="M486.795 155.163C486.795 155.163 488.159 189.127 491.979 194.443L470.973 189.669V152.707L486.795 155.163Z" fill="#FFC0BB"/>
<path d="M477.845 159.801C477.845 159.801 474.923 168.35 474.39 172.889C473.07 184.165 474.504 192.122 476.837 198.537C480.11 207.54 453.376 204.266 452.831 203.993C452.285 203.72 429.37 194.855 429.37 194.855L425.005 182.17V159.801L426.232 149.571L477.845 159.801Z" fill="#02CCC0"/>
<path d="M413.822 149.571L430.644 155.3C430.644 155.3 427.734 182.216 428.644 186.034C429.421 189.296 441.624 195.789 449.352 199.422C450.595 200.008 451.97 200.257 453.339 200.145C457.742 199.783 465.547 199.101 466.773 199.017C468.697 198.884 473.988 199.02 474.158 199.696C474.316 200.323 470.026 199.633 467.244 200.207C466.852 200.288 467.061 200.811 467.152 200.814C468.629 200.87 472.429 201.032 473.676 201.449C475.21 201.959 469.787 201.554 466.859 202.093C466.655 202.131 466.489 202.713 466.638 202.86C466.987 203.205 468.262 203.505 471.762 203.863C477.598 204.459 471.888 205.183 471.888 205.183C471.888 205.183 471.363 205.033 466.347 204.347C466.163 204.322 465.957 204.843 466.235 205.087C467.144 205.866 468.204 206.447 469.35 206.794C471.228 207.348 469.861 207.838 469.861 207.838C468.046 207.289 466.19 206.885 464.311 206.629C462.816 206.516 455.783 207.089 452.894 207.254L452.673 206.76C448.761 206.646 417.551 205.835 414.549 186.491C412.693 174.27 412.449 161.858 413.821 149.573" fill="#FFC0BB"/>
<path d="M536.102 168.846H482.493L467.293 205.948H441.468C441.294 205.944 441.121 205.975 440.959 206.039C440.797 206.103 440.649 206.199 440.525 206.32C440.4 206.442 440.301 206.588 440.233 206.748C440.166 206.909 440.131 207.081 440.131 207.255C440.131 207.43 440.166 207.602 440.233 207.763C440.301 207.923 440.4 208.069 440.525 208.19C440.649 208.312 440.797 208.408 440.959 208.472C441.121 208.536 441.294 208.567 441.468 208.563H518.286L536.102 168.846Z" fill="#07085B"/>
<path d="M509.517 190.018C509.356 190.486 509.064 190.898 508.675 191.205C508.286 191.512 507.817 191.7 507.324 191.747C506.831 191.794 506.335 191.698 505.895 191.471C505.456 191.243 505.09 190.894 504.844 190.465C504.597 190.035 504.479 189.544 504.505 189.05C504.53 188.555 504.697 188.078 504.986 187.676C505.275 187.274 505.674 186.964 506.135 186.782C506.595 186.601 507.099 186.556 507.584 186.653C508.285 186.846 508.881 187.308 509.243 187.938C509.605 188.568 509.703 189.316 509.517 190.018" fill="#DAEEF7"/>
<path d="M469.771 125.985C469.771 125.985 459.589 137.87 447.905 123.462C447.905 123.462 435.141 122.423 425.729 129.103C416.317 135.783 410.682 150.799 410.682 150.799C410.682 150.799 427.732 159.391 431.961 159.8H479.291C484.224 159.284 489.026 157.899 493.477 155.709C493.477 155.709 492.277 131.847 469.771 125.982" fill="#02CCC0"/>
<path d="M438.186 146.258C437.747 147.732 437.351 149.217 436.959 150.704C436.225 153.627 435.551 156.406 435.056 159.394C434.093 159.406 433.131 159.331 432.182 159.17C427.266 158.295 424.038 156.919 419.661 155.127C413.103 152.137 413.988 152.429 410.685 150.798C413.488 152.606 416.394 154.249 419.388 155.719C423.222 157.497 426.886 159.141 432.045 160.049C433.283 160.287 434.551 160.335 435.804 160.193C436.137 158.002 436.518 155.758 437.565 150.846L438.539 146.348L439.542 141.85C439.055 143.308 438.624 144.784 438.187 146.258" fill="#07085B"/>
<path d="M475.527 138.398C476.194 140.143 476.798 141.898 477.341 143.663C477.886 145.422 478.326 147.211 478.657 149.022C478.997 150.819 479.141 152.646 479.088 154.474C479.02 156.296 476.321 164.872 475.527 166.566C476.647 165.06 479.587 156.415 479.786 154.53C479.977 152.639 479.894 150.731 479.538 148.865C479.199 147.011 478.683 145.193 478 143.437C477.342 141.68 476.513 139.993 475.526 138.398" fill="#07085B"/>
<path d="M450.487 99.0235C450.487 99.0235 467.975 94.8053 476.328 82.9228C476.328 82.9228 476.474 72.1018 460.42 74.5564C444.821 76.9411 441.17 92.1209 450.486 99.0214" fill="#FF5B7E"/>
<path d="M623.887 484.263H79.1271C78.3541 484.263 77.6127 483.956 77.0661 483.409C76.5195 482.863 76.2124 482.121 76.2124 481.348V480.008C76.2126 479.235 76.5197 478.493 77.0663 477.947C77.6129 477.4 78.3542 477.093 79.1271 477.093H623.887C624.66 477.093 625.401 477.4 625.947 477.947C626.494 478.493 626.801 479.235 626.801 480.008V481.348C626.801 482.121 626.494 482.863 625.948 483.409C625.401 483.956 624.66 484.263 623.887 484.263Z" fill="#C4DFE8"/>
<path d="M72.8757 240.911L178.045 180.758L192.259 208.915L84.6468 265.846L72.8757 240.911Z" fill="#F4A640"/>
<path d="M271.06 69.5691C271.06 69.5691 270.231 77.7485 263.776 78.3146C270.232 78.8807 271.06 87.0602 271.06 87.0602C271.06 87.0602 271.889 78.8807 278.345 78.3146C271.889 77.7485 271.06 69.5691 271.06 69.5691Z" fill="#02CCC0"/>
<path d="M159.54 6.7312C159.54 6.7312 158.435 17.6263 149.837 18.3799C158.435 19.1336 159.54 30.0287 159.54 30.0287C159.54 30.0287 160.645 19.1336 169.242 18.3799C160.645 17.6263 159.54 6.7312 159.54 6.7312Z" fill="#FEB546"/>
<path d="M114.497 104.176C114.497 104.176 113.755 111.492 107.982 111.998C113.755 112.504 114.497 119.82 114.497 119.82C114.497 119.82 115.239 112.504 121.012 111.998C115.236 111.492 114.497 104.176 114.497 104.176Z" fill="#FF5B7E"/>
<path d="M606.63 254.198C606.63 254.198 605.525 265.093 596.928 265.846C605.525 266.6 606.63 277.495 606.63 277.495C606.63 277.495 607.734 266.601 616.332 265.846C607.734 265.093 606.63 254.198 606.63 254.198" fill="#FF5B7E"/>
<path d="M9.7024 182.8C9.7024 182.8 8.5974 193.692 0 194.446C8.5974 195.199 9.7024 206.094 9.7024 206.094C9.7024 206.094 10.8074 195.199 19.4048 194.446C10.8054 193.692 9.7024 182.8 9.7024 182.8Z" fill="#02CCC0"/>
<path d="M639.298 169.109C639.298 169.109 638.193 180.004 629.596 180.757C638.193 181.511 639.298 192.406 639.298 192.406C639.298 192.406 640.403 181.511 649 180.757C640.403 180.004 639.298 169.109 639.298 169.109Z" fill="#02CCC0"/>
<path d="M380.778 0.0319824C380.778 0.0319824 379.672 10.9271 371.074 11.6807C379.672 12.4344 380.778 23.3294 380.778 23.3294C380.778 23.3294 381.882 12.4344 390.48 11.6807C381.882 10.925 380.778 0.0319824 380.778 0.0319824Z" fill="#FF5B7E"/>
<path d="M564.964 83.6614C564.964 83.6614 564.363 90.5408 559.691 91.0165C564.363 91.4922 564.964 98.3716 564.964 98.3716C564.964 98.3716 565.565 91.4922 570.238 91.0165C565.565 90.5408 564.964 83.6614 564.964 83.6614Z" fill="#FEB546"/>
</svg>
