<svg width="167" height="164" viewBox="0 0 167 164" fill="none" xmlns="http://www.w3.org/2000/svg">
<path d="M166.959 79.532C166.959 123.456 129.584 159.063 83.479 159.063C37.374 159.063 0 123.456 0 79.532C0 35.608 37.375 0 83.479 0C129.583 0 166.959 35.607 166.959 79.531" fill="#FDC6AA"/>
<path d="M113.43 128.474C113.43 128.474 124.54 129.767 130.688 133.311C136.836 136.855 140.54 146.534 140.54 146.534C140.54 146.534 116.053 165.182 83.777 163.934C51.501 162.686 29.416 137.876 29.416 137.876C29.416 137.876 34.532 128.634 43.453 124.546C49.221 121.903 66.867 121.773 66.867 121.773L113.43 128.474Z" fill="#4D7D80"/>
<path d="M51.2402 45.423L54.9952 71.396C54.9952 71.396 42.6892 101.112 67.5092 101.32L62.4172 126.049C62.1231 127.471 62.2636 128.949 62.8205 130.291C63.3775 131.632 64.3251 132.775 65.5402 133.571C69.058 135.701 73.0105 137.012 77.1042 137.405C86.1502 138.591 96.8822 133.557 102.331 130.547C103.409 129.956 104.312 129.091 104.949 128.04C105.586 126.989 105.935 125.788 105.96 124.559L106.974 71.396L93.1632 37.144L51.2402 45.423Z" fill="#E06F6F"/>
<path d="M67.5099 101.32C76.1999 101.042 86.7679 98.678 92.7479 89.5C98.9289 91.355 95.6569 103.32 88.799 106.149C86.9277 106.944 85.2705 108.17 83.9619 109.726C76.5849 118.271 64.2939 116.933 64.2939 116.933L67.5099 101.32Z" fill="#9E3838"/>
<path d="M66.3281 64.4549C66.3281 66.3269 65.4181 67.8449 64.2941 67.8449C63.1701 67.8449 62.2661 66.3259 62.2661 64.4549C62.2661 62.5839 63.1761 61.0669 64.2991 61.0669C65.4221 61.0669 66.3331 62.5839 66.3331 64.4549" fill="#2A2A2A"/>
<path d="M84.9772 64.2799C84.9772 66.1519 84.0672 67.6689 82.9432 67.6689C81.8192 67.6689 80.9082 66.1519 80.9082 64.2799C80.9082 62.4079 81.8182 60.8909 82.9412 60.8909C84.0642 60.8909 84.9752 62.4079 84.9752 64.2799" fill="#2A2A2A"/>
<path d="M70.2198 61.636C70.6198 64.436 68.0288 70.475 66.4138 73.803C66.3178 74.0008 66.2785 74.2214 66.3003 74.4402C66.3222 74.659 66.4043 74.8674 66.5376 75.0423C66.6709 75.2171 66.8502 75.3516 67.0554 75.4306C67.2605 75.5097 67.4836 75.5302 67.6998 75.49L73.3488 74.463" stroke="#612525" stroke-width="0.966" stroke-miterlimit="10"/>
<path d="M64.9009 80.672C68.1037 81.3945 71.4373 81.2953 74.5915 80.3837C77.7458 79.4721 80.6183 77.7777 82.9419 75.458" stroke="#612525" stroke-width="0.966" stroke-miterlimit="10"/>
<path d="M65.6318 86.5109C65.6318 86.5109 70.9508 84.4259 74.8088 86.5109" stroke="#612525" stroke-width="0.966" stroke-miterlimit="10"/>
<path d="M73.3452 57.8331C75.1172 53.6621 82.8352 50.0111 86.7982 56.5821" stroke="#312A45" stroke-width="2.107" stroke-miterlimit="10" stroke-linecap="round"/>
<path d="M58.02 58.9799C59.897 54.7049 65.42 55.6419 67.406 58.4589" stroke="#312A45" stroke-width="2.107" stroke-miterlimit="10" stroke-linecap="round"/>
<path d="M100.493 65.725C100.493 65.725 90.7732 57.22 89.9632 44.26C83.4842 54.79 66.4732 46.286 66.4732 46.286C66.4732 46.286 56.8672 52.12 51.2402 45.423C52.1462 38.803 96.8492 24.01 96.8492 24.01C96.8492 24.01 115.686 28.958 112.849 45.158C111.37 54.0042 109.409 62.7629 106.974 71.395L100.493 65.725Z" fill="#312A45"/>
<path d="M113.523 72.091C111.523 76.62 106.961 78.991 103.344 77.391C99.7269 75.791 98.4219 70.821 100.426 66.291C102.43 61.761 106.988 59.391 110.605 60.991C114.222 62.591 115.527 67.562 113.523 72.091Z" fill="#E06F6F"/>
<path d="M102.203 70.1719C103.454 65.4449 110.546 62.2309 111.241 69.1909" stroke="#9E3838" stroke-width="0.966" stroke-miterlimit="10"/>
<path d="M56.1729 37.143C56.1729 37.143 56.6128 33.172 62.7118 22.951C68.8108 12.73 87.3918 10.685 97.2408 15.145C107.09 19.605 115.831 27.658 114.463 39.117C113.095 50.576 114.463 52.981 114.463 52.981L56.1729 37.143Z" fill="#8F3935"/>
<path d="M106.975 100.673C106.975 100.673 82.2132 120.969 80.1592 137.581C80.1592 137.581 86.7422 139.837 102.074 136.352C117.406 132.867 119.956 129.607 119.956 129.607C119.956 129.607 126.581 106.066 106.974 100.674" fill="#312A45"/>
<path d="M66.1148 106.388C66.1148 106.388 73.5678 123.048 72.2808 136.46C72.2808 136.46 63.8808 137.607 57.1948 128.548C50.5088 119.489 59.7028 106.388 66.1148 106.388Z" fill="#312A45"/>
<path d="M51.24 38.236C51.24 38.236 54.599 31.269 71.946 33.225C99.486 36.332 115.081 48.776 116.939 52.983C118.797 57.19 113.476 63.701 113.476 63.701C113.476 63.701 65.171 38.601 52.332 52.983C52.332 52.983 45.842 46.737 51.239 38.236" fill="#A54646"/>
<path d="M58.472 38.3749L58.02 44.5999C64.3393 43.9499 70.7168 44.1375 76.987 45.1579L78.381 38.8389C78.381 38.8389 67.443 34.6759 58.473 38.3739" fill="#D1932A"/>
</svg>
