<svg width="55" height="55" viewBox="0 0 55 55" fill="none" xmlns="http://www.w3.org/2000/svg">
<path d="M55 26.1992C55 40.6686 42.6877 52.3985 27.4997 52.3985C12.3118 52.3985 0 40.6687 0 26.1992C0 11.7298 12.3123 0 27.4997 0C42.6872 0 55 11.7298 55 26.1991" fill="#FDC6AA"/>
<path d="M37.3674 42.4659C37.3674 42.4659 41.0272 42.8917 43.0526 44.0593C45.078 45.2268 46.2981 48.4154 46.2981 48.4154C46.2981 48.4154 38.2312 54.5584 27.599 54.1486C16.9668 53.7389 9.69141 45.5645 9.69141 45.5645C9.69141 45.5645 11.3769 42.5202 14.3154 41.1733C16.2154 40.3025 22.0287 40.2598 22.0287 40.2598L37.3674 42.4659Z" fill="#4D7D80"/>
<path d="M16.8809 15.1071L18.1178 23.6633C18.1178 23.6633 14.0639 33.4527 22.2403 33.5212L20.5628 41.6674C20.4661 42.1358 20.5124 42.6226 20.6959 43.0644C20.8793 43.5061 21.1914 43.8825 21.5916 44.1446C22.3639 44.6496 23.5663 45.1667 25.4008 45.4074C28.3807 45.7981 31.9163 44.1397 33.7112 43.1484C34.0663 42.9537 34.3638 42.6688 34.5737 42.3225C34.7836 41.9762 34.8985 41.5806 34.9068 41.1757L35.2409 23.6633L30.6913 12.3797L16.8809 15.1071Z" fill="#E06F6F"/>
<path d="M22.2406 33.5209C25.1035 33.4293 28.5847 32.6506 30.5545 29.6272C32.5901 30.2381 31.513 34.18 29.2535 35.1117C28.6371 35.3736 28.0912 35.7773 27.6601 36.2899C25.2303 39.1045 21.1816 38.6647 21.1816 38.6647L22.2406 33.5209Z" fill="#9E3838"/>
<path d="M21.8514 21.3765C21.8514 21.9932 21.5515 22.4933 21.1813 22.4933C20.8111 22.4933 20.5117 21.9932 20.5117 21.3765C20.5117 20.7598 20.8117 20.2606 21.1813 20.2606C21.551 20.2606 21.8514 20.7603 21.8514 21.3765Z" fill="#2A2A2A"/>
<path d="M27.9943 21.3191C27.9943 21.9358 27.6943 22.4355 27.3241 22.4355C26.954 22.4355 26.6543 21.9358 26.6543 21.3191C26.6543 20.7024 26.9542 20.2027 27.3239 20.2027C27.6936 20.2027 27.994 20.7024 27.994 21.3191" fill="#2A2A2A"/>
<path d="M23.1331 20.4484C23.2648 21.3699 22.4114 23.3601 21.8792 24.4567C21.8476 24.5218 21.8346 24.5945 21.8418 24.6666C21.849 24.7387 21.876 24.8073 21.9199 24.865C21.9638 24.9226 22.0229 24.9669 22.0905 24.9929C22.1581 25.0189 22.2316 25.0257 22.3028 25.0124L24.1636 24.674" stroke="#612525" stroke-width="0.966" stroke-miterlimit="10"/>
<path d="M21.3809 26.719C22.436 26.9571 23.5342 26.9245 24.5733 26.6242C25.6124 26.3239 26.5587 25.7657 27.3242 25.0015" stroke="#612525" stroke-width="0.966" stroke-miterlimit="10"/>
<path d="M21.6211 28.6426C21.6211 28.6426 23.3733 27.9556 24.644 28.6426" stroke="#612525" stroke-width="0.966" stroke-miterlimit="10"/>
<path d="M24.1641 19.1953C24.7478 17.8213 27.2903 16.6185 28.5958 18.7833" stroke="#312A45" stroke-width="2.107" stroke-miterlimit="10" stroke-linecap="round"/>
<path d="M19.1133 19.5732C19.7317 18.1649 21.5524 18.4738 22.2052 19.4015" stroke="#312A45" stroke-width="2.107" stroke-miterlimit="10" stroke-linecap="round"/>
<path d="M33.106 21.7952C33.106 21.7952 29.9041 18.9932 29.6371 14.724C27.5026 18.1929 21.8989 15.3915 21.8989 15.3915C21.8989 15.3915 18.7345 17.3133 16.8809 15.1072C17.1794 12.9265 31.9055 8.05338 31.9055 8.05338C31.9055 8.05338 38.1108 9.68321 37.1768 15.02C36.2429 20.3569 35.2408 23.6633 35.2408 23.6633L33.106 21.7952Z" fill="#312A45"/>
<path d="M37.3975 23.8929C36.7372 25.3847 35.2362 26.1672 34.0443 25.6394C32.8524 25.1117 32.423 23.4749 33.0833 21.9829C33.7436 20.491 35.2445 19.7086 36.4365 20.2364C37.6284 20.7641 38.0574 22.4011 37.3976 23.8929" fill="#E06F6F"/>
<path d="M33.668 23.2604C34.08 21.7031 36.4165 20.6445 36.6452 22.9368" stroke="#9E3838" stroke-width="0.966" stroke-miterlimit="10"/>
<path d="M18.5059 12.3796C18.5059 12.3796 18.6509 11.0714 20.6599 7.70446C22.669 4.33748 28.7896 3.66386 32.0347 5.13311C35.2798 6.60237 38.1586 9.25514 37.7078 13.0301C37.2569 16.8051 37.7078 17.5971 37.7078 17.5971L18.5059 12.3796Z" fill="#8F3935"/>
<path d="M35.2416 33.3078C35.2416 33.3078 27.0856 39.9937 26.4082 45.4662C26.4082 45.4662 28.5768 46.2093 33.6276 45.0613C38.6783 43.9134 39.5183 42.8393 39.5183 42.8393C39.5183 42.8393 41.7007 35.0843 35.2418 33.308" fill="#312A45"/>
<path d="M21.7805 35.1904C21.7805 35.1904 24.2358 40.6784 23.8117 45.0969C23.8117 45.0969 21.0458 45.4746 18.842 42.4903C16.6382 39.5061 19.6683 35.1899 21.7805 35.1899" fill="#312A45"/>
<path d="M16.8804 12.7396C16.8804 12.7396 17.987 10.4446 23.7016 11.0888C32.7737 12.1122 37.9111 16.2115 38.5234 17.5976C39.1357 18.9836 37.3825 21.1284 37.3825 21.1284C37.3825 21.1284 21.4696 12.8605 17.2404 17.5976C17.2404 17.5976 15.1024 15.5401 16.8804 12.7396" fill="#A54646"/>
<path d="M19.2623 12.7855L19.1133 14.8363C19.1133 14.8363 21.6883 14.4687 25.3613 15.02L25.8205 12.9385C25.8205 12.9385 22.2173 11.5677 19.2623 12.7855Z" fill="#D1932A"/>
</svg>
