<svg width="269" height="46" viewBox="0 0 269 46" fill="none" xmlns="http://www.w3.org/2000/svg">
<path fill-rule="evenodd" clip-rule="evenodd" d="M30.8972 0C26.0219 0 22.0695 3.83149 22.0695 8.55737C22.0695 13.2833 26.0219 17.1147 30.8972 17.1147C35.7725 17.1147 39.7249 13.2833 39.7249 8.55737C39.7249 3.83149 35.7728 0 30.8972 0ZM13.637 16.6492C22.8261 16.6492 30.2753 23.8709 30.2753 32.7792V46H21.9992V32.7792C22.0001 31.8567 21.8387 30.9411 21.5223 30.0738L9.36595 41.8589L3.51379 36.1856L15.237 24.8208C14.7093 24.7219 14.1736 24.6722 13.6366 24.6725H0V16.6492H13.637ZM48.3634 16.6492C39.1743 16.6492 31.7247 23.8709 31.7247 32.7792V46H39.9998V32.7792C39.9993 32.0536 40.0989 31.3313 40.296 30.6325L53.0123 42.9615L58.8645 37.2883L46.1492 24.9609C46.8714 24.7696 47.6158 24.6731 48.3634 24.6738H62V16.6492H48.3634Z" fill="#FF6600"/>
<path d="M83.325 36.42C81.2717 36.42 79.5217 36.0467 78.075 35.3C76.6517 34.5533 75.4267 33.55 74.4 32.29L77.13 29.735C77.9933 30.785 78.9383 31.5783 79.965 32.115C81.015 32.6517 82.205 32.92 83.535 32.92C85.0983 32.92 86.2767 32.57 87.07 31.87C87.8633 31.17 88.26 30.225 88.26 29.035C88.26 28.0783 87.98 27.32 87.42 26.76C86.86 26.2 85.8683 25.78 84.445 25.5L82.275 25.115C79.895 24.6717 78.11 23.89 76.92 22.77C75.73 21.65 75.135 20.11 75.135 18.15C75.135 17.0767 75.3333 16.1083 75.73 15.245C76.15 14.3583 76.7217 13.6233 77.445 13.04C78.1917 12.4333 79.09 11.9667 80.14 11.64C81.19 11.3133 82.3683 11.15 83.675 11.15C85.5183 11.15 87.1167 11.4767 88.47 12.13C89.8233 12.76 90.9783 13.6817 91.935 14.895L89.17 17.345C88.54 16.5283 87.77 15.875 86.86 15.385C85.95 14.895 84.8183 14.65 83.465 14.65C82.065 14.65 80.98 14.93 80.21 15.49C79.44 16.05 79.055 16.8667 79.055 17.94C79.055 18.9667 79.37 19.7367 80 20.25C80.63 20.74 81.61 21.1133 82.94 21.37L85.11 21.825C87.56 22.2917 89.345 23.085 90.465 24.205C91.6083 25.325 92.18 26.865 92.18 28.825C92.18 29.9683 91.9817 31.0067 91.585 31.94C91.1883 32.8733 90.605 33.6783 89.835 34.355C89.0883 35.0083 88.1667 35.5217 87.07 35.895C85.9733 36.245 84.725 36.42 83.325 36.42ZM101.62 36C100.29 36 99.2863 35.6617 98.6096 34.985C97.9329 34.285 97.5946 33.305 97.5946 32.045V20.915H94.7596V17.8H96.2996C96.9296 17.8 97.3613 17.66 97.5946 17.38C97.8513 17.1 97.9796 16.645 97.9796 16.015V12.83H101.41V17.8H105.225V20.915H101.41V32.885H104.945V36H101.62ZM120.388 32.99H120.248C120.084 33.4333 119.863 33.865 119.583 34.285C119.326 34.705 118.988 35.0783 118.568 35.405C118.171 35.7083 117.681 35.9533 117.098 36.14C116.538 36.3267 115.884 36.42 115.138 36.42C113.248 36.42 111.778 35.8133 110.728 34.6C109.701 33.3867 109.188 31.6483 109.188 29.385V17.8H113.003V28.895C113.003 31.7183 114.169 33.13 116.503 33.13C116.993 33.13 117.471 33.0717 117.938 32.955C118.404 32.815 118.813 32.6167 119.163 32.36C119.536 32.1033 119.828 31.7767 120.038 31.38C120.271 30.9833 120.388 30.5167 120.388 29.98V17.8H124.203V36H120.388V32.99ZM141.111 32.99H140.936C140.539 34.0633 139.886 34.9033 138.976 35.51C138.089 36.1167 137.039 36.42 135.826 36.42C133.516 36.42 131.731 35.5917 130.471 33.935C129.211 32.255 128.581 29.91 128.581 26.9C128.581 23.89 129.211 21.5567 130.471 19.9C131.731 18.22 133.516 17.38 135.826 17.38C137.039 17.38 138.089 17.6833 138.976 18.29C139.886 18.8733 140.539 19.7133 140.936 20.81H141.111V10.1H144.926V36H141.111V32.99ZM136.981 33.13C138.147 33.13 139.127 32.85 139.921 32.29C140.714 31.7067 141.111 30.9483 141.111 30.015V23.785C141.111 22.8517 140.714 22.105 139.921 21.545C139.127 20.9617 138.147 20.67 136.981 20.67C135.651 20.67 134.589 21.1017 133.796 21.965C133.002 22.805 132.606 23.925 132.606 25.325V28.475C132.606 29.875 133.002 31.0067 133.796 31.87C134.589 32.71 135.651 33.13 136.981 33.13ZM161.543 17.8H165.218L157.553 39.605C157.343 40.2117 157.098 40.725 156.818 41.145C156.562 41.5883 156.247 41.9383 155.873 42.195C155.523 42.475 155.092 42.6733 154.578 42.79C154.065 42.93 153.458 43 152.758 43H150.553V39.885H153.633L154.683 36.805L148.068 17.8H151.883L155.523 28.51L156.573 32.465H156.748L157.903 28.51L161.543 17.8ZM168.637 11.57H179.452C181.482 11.57 183.069 12.1417 184.212 13.285C185.379 14.4283 185.962 15.9567 185.962 17.87C185.962 18.78 185.834 19.5617 185.577 20.215C185.32 20.845 184.994 21.37 184.597 21.79C184.2 22.1867 183.745 22.49 183.232 22.7C182.719 22.8867 182.217 23.0033 181.727 23.05V23.26C182.217 23.2833 182.754 23.4 183.337 23.61C183.944 23.82 184.504 24.1583 185.017 24.625C185.53 25.0683 185.962 25.6517 186.312 26.375C186.662 27.075 186.837 27.9383 186.837 28.965C186.837 29.945 186.674 30.8667 186.347 31.73C186.044 32.5933 185.612 33.34 185.052 33.97C184.492 34.6 183.827 35.1017 183.057 35.475C182.287 35.825 181.447 36 180.537 36H168.637V11.57ZM172.592 32.605H179.382C180.409 32.605 181.214 32.3367 181.797 31.8C182.38 31.2633 182.672 30.4933 182.672 29.49V28.3C182.672 27.2967 182.38 26.5267 181.797 25.99C181.214 25.4533 180.409 25.185 179.382 25.185H172.592V32.605ZM172.592 21.895H178.717C179.697 21.895 180.455 21.65 180.992 21.16C181.529 20.6467 181.797 19.9233 181.797 18.99V17.87C181.797 16.9367 181.529 16.225 180.992 15.735C180.455 15.2217 179.697 14.965 178.717 14.965H172.592V21.895ZM202.453 32.99H202.313C202.15 33.4333 201.928 33.865 201.648 34.285C201.392 34.705 201.053 35.0783 200.633 35.405C200.237 35.7083 199.747 35.9533 199.163 36.14C198.603 36.3267 197.95 36.42 197.203 36.42C195.313 36.42 193.843 35.8133 192.793 34.6C191.767 33.3867 191.253 31.6483 191.253 29.385V17.8H195.068V28.895C195.068 31.7183 196.235 33.13 198.568 33.13C199.058 33.13 199.537 33.0717 200.003 32.955C200.47 32.815 200.878 32.6167 201.228 32.36C201.602 32.1033 201.893 31.7767 202.103 31.38C202.337 30.9833 202.453 30.5167 202.453 29.98V17.8H206.268V36H202.453V32.99ZM223.176 32.99H223.001C222.604 34.0633 221.951 34.9033 221.041 35.51C220.154 36.1167 219.104 36.42 217.891 36.42C215.581 36.42 213.796 35.5917 212.536 33.935C211.276 32.255 210.646 29.91 210.646 26.9C210.646 23.89 211.276 21.5567 212.536 19.9C213.796 18.22 215.581 17.38 217.891 17.38C219.104 17.38 220.154 17.6833 221.041 18.29C221.951 18.8733 222.604 19.7133 223.001 20.81H223.176V10.1H226.991V36H223.176V32.99ZM219.046 33.13C220.213 33.13 221.193 32.85 221.986 32.29C222.779 31.7067 223.176 30.9483 223.176 30.015V23.785C223.176 22.8517 222.779 22.105 221.986 21.545C221.193 20.9617 220.213 20.67 219.046 20.67C217.716 20.67 216.654 21.1017 215.861 21.965C215.068 22.805 214.671 23.925 214.671 25.325V28.475C214.671 29.875 215.068 31.0067 215.861 31.87C216.654 32.71 217.716 33.13 219.046 33.13ZM243.889 32.99H243.714C243.317 34.0633 242.664 34.9033 241.754 35.51C240.867 36.1167 239.817 36.42 238.604 36.42C236.294 36.42 234.509 35.5917 233.249 33.935C231.989 32.255 231.359 29.91 231.359 26.9C231.359 23.89 231.989 21.5567 233.249 19.9C234.509 18.22 236.294 17.38 238.604 17.38C239.817 17.38 240.867 17.6833 241.754 18.29C242.664 18.8733 243.317 19.7133 243.714 20.81H243.889V10.1H247.704V36H243.889V32.99ZM239.759 33.13C240.926 33.13 241.906 32.85 242.699 32.29C243.492 31.7067 243.889 30.9483 243.889 30.015V23.785C243.889 22.8517 243.492 22.105 242.699 21.545C241.906 20.9617 240.926 20.67 239.759 20.67C238.429 20.67 237.367 21.1017 236.574 21.965C235.781 22.805 235.384 23.925 235.384 25.325V28.475C235.384 29.875 235.781 31.0067 236.574 31.87C237.367 32.71 238.429 33.13 239.759 33.13ZM264.322 17.8H267.997L260.332 39.605C260.122 40.2117 259.877 40.725 259.597 41.145C259.34 41.5883 259.025 41.9383 258.652 42.195C258.302 42.475 257.87 42.6733 257.357 42.79C256.843 42.93 256.237 43 255.537 43H253.332V39.885H256.412L257.462 36.805L250.847 17.8H254.662L258.302 28.51L259.352 32.465H259.527L260.682 28.51L264.322 17.8Z" fill="white"/>
</svg>
